<?xml version="1.0" standalone="no"?>
<!DOCTYPE svg PUBLIC "-//W3C//DTD SVG 1.1//EN" "http://www.w3.org/Graphics/SVG/1.1/DTD/svg11.dtd" >
<svg xmlns="http://www.w3.org/2000/svg" xmlns:xlink="http://www.w3.org/1999/xlink" version="1.1">
<metadata>
Created by FontForge 20170731 at Mon Apr 16 16:42:41 2018
 By Aleksey,,,
2018 (c) Zeune Ink Foundry
</metadata>
<defs>
<font id="Wallington-Regular" horiz-adv-x="620" >
  <font-face 
    font-family="Wallington"
    font-weight="400"
    font-stretch="normal"
    units-per-em="1000"
    panose-1="0 0 5 0 0 0 0 0 0 0"
    ascent="800"
    descent="-200"
    x-height="503"
    cap-height="1003"
    bbox="-152 -525 1109 1105"
    underline-thickness="50"
    underline-position="-150"
    unicode-range="U+0020-25CA"
  />
<missing-glyph horiz-adv-x="763" 
d="M625 -525h-483v1525h483v-1525zM256 898v-50h99v-57h-100v-50h253v50h-101v57h101v50h-252zM255 701v-158h253v51h-101v107h-152zM355 594h-50v55h50v-55zM255 501v-50h100v-56h-100v-51h152v107h101v50h-253zM458 410v-101h-203v-52h253v153h-50zM355 224v-86h52v35h51
v-71h-153v122h-50v-173h253v173h-153zM255 -40v-172h253v172h-253zM458 -162h-153v72h153v-72zM255 -247v-51h106l-106 -71v-51h253v51h-156l107 71h49v51h-253z" />
    <glyph glyph-name=".notdef" horiz-adv-x="763" 
d="M625 -525h-483v1525h483v-1525zM256 898v-50h99v-57h-100v-50h253v50h-101v57h101v50h-252zM255 701v-158h253v51h-101v107h-152zM355 594h-50v55h50v-55zM255 501v-50h100v-56h-100v-51h152v107h101v50h-253zM458 410v-101h-203v-52h253v153h-50zM355 224v-86h52v35h51
v-71h-153v122h-50v-173h253v173h-153zM255 -40v-172h253v172h-253zM458 -162h-153v72h153v-72zM255 -247v-51h106l-106 -71v-51h253v51h-156l107 71h49v51h-253z" />
    <glyph glyph-name=".null" horiz-adv-x="0" 
 />
    <glyph glyph-name="nonmarkingreturn" horiz-adv-x="333" 
 />
    <glyph glyph-name="space" unicode=" " horiz-adv-x="180" 
 />
    <glyph glyph-name="exclam" unicode="!" horiz-adv-x="377" 
d="M208 864l2 31q0 56 -10.5 80.5t-40.5 24.5q-29 0 -40.5 -24t-11.5 -72l2 -29q2 -22 2 -37l25 -658h27l44 658zM108.5 107q-17.5 -18 -17.5 -43t17.5 -43t42.5 -18t42.5 18t17.5 43t-17.5 43t-42.5 18t-42.5 -18z" />
    <glyph glyph-name="quotedbl" unicode="&#x22;" horiz-adv-x="415" 
d="M84 691q7 0 11.5 4t4.5 11q0 6 -4 11q-39 50 -39 100q0 32 15 51.5t32 15.5q8 -2 12 -2q17 0 29 12t17 30q2 8 2 13q0 26 -20 46t-54 20q-30 0 -53 -23t-32 -63q-5 -22 -5 -41q0 -46 19 -92.5t45 -80.5q8 -12 20 -12zM294 691q7 0 11.5 4t4.5 11q0 6 -4 11
q-39 50 -39 100q0 32 15 51.5t32 15.5q8 -2 12 -2q17 0 29 12t17 30q2 8 2 13q0 26 -20 46t-54 20q-30 0 -53 -23t-32 -63q-5 -22 -5 -41q0 -46 19 -92.5t45 -80.5q8 -12 20 -12z" />
    <glyph glyph-name="numbersign" unicode="#" horiz-adv-x="705" 
d="M213 303q2 6 7 10.5t11 4.5h177q6 0 9.5 -4.5t2.5 -10.5l-49 -248v-3q0 -5 3.5 -8.5t8.5 -3.5h19q6 0 11 4.5t7 10.5l51 248q2 6 7 10.5t11 4.5h136q6 0 10.5 4.5t4.5 10.5v20q0 6 -4.5 10.5t-10.5 4.5h-126q-6 0 -9.5 4.5t-2.5 10.5l37 179q2 6 7 10.5t11 4.5h83
q6 0 10.5 4.5t4.5 10.5v19q0 6 -4.5 10.5t-10.5 4.5h-74q-6 0 -9.5 4.5t-2.5 10.5l52 247v3q0 5 -3.5 8.5t-8.5 3.5h-21q-6 0 -11 -4.5t-7 -10.5l-53 -247q-2 -6 -7 -10.5t-11 -4.5h-175q-6 0 -9.5 4.5t-2.5 10.5l49 247v3q0 5 -3.5 8.5t-8.5 3.5h-20q-6 0 -11 -4.5
t-7 -10.5l-50 -247q-2 -6 -7 -10.5t-11 -4.5h-138q-6 0 -10.5 -4.5t-4.5 -10.5v-19q0 -6 4.5 -10.5t10.5 -4.5h126q6 0 9.5 -4.5t2.5 -10.5l-36 -179q-2 -6 -7 -10.5t-11 -4.5h-84q-6 0 -10.5 -4.5t-4.5 -10.5v-20q0 -6 4.5 -10.5t10.5 -4.5h75q6 0 9.5 -4.5t2.5 -10.5
l-51 -248v-3q0 -5 3.5 -8.5t8.5 -3.5h21q6 0 11 4.5t7 10.5zM461 577q6 0 9.5 -4.5t2.5 -10.5l-38 -179q-2 -6 -7 -10.5t-11 -4.5h-176q-6 0 -9.5 4.5t-2.5 10.5l36 179q2 6 7 10.5t11 4.5h178z" />
    <glyph glyph-name="dollar" unicode="$" horiz-adv-x="558" 
d="M523 234q0 -60 -32.5 -111.5t-89 -85t-125.5 -39.5v-102h-55v101q-27 2 -48 7q-65 14 -101 53.5t-48.5 77.5t-12.5 54l-1 19q0 53 21 93.5t54.5 62t70.5 21.5q18 0 31 -4q22 -7 34 -18v131q-75 74 -114 116.5t-67.5 95.5t-28.5 109q0 53 20 92.5t51.5 62t66.5 28.5
q27 5 72 7v100h55v-100q86 -3 127 -13q-25 -64 -25 -145q0 -30 2 -46q0 -15 -13 -15q-9 0 -21 6l-8 4q1 4 3.5 18.5t2.5 31.5q0 84 -58 115q-3 1 -5.5 2t-4.5 2v-376q36 -36 81 -82.5t97 -105.5q69 -80 69 -167zM221 645v332q-43 2 -80 -16t-48 -47q-8 -26 -8 -45
q0 -37 23 -76.5t75 -102.5zM382.5 89.5q28.5 49.5 28.5 97.5q0 66 -35 125.5t-100 127.5v-414q78 14 106.5 63.5zM96.5 317q-29.5 -47 -29.5 -111q0 -70 39 -123t115 -60v320q-17 21 -47 21q-48 0 -77.5 -47z" />
    <glyph glyph-name="percent" unicode="%" horiz-adv-x="719" 
d="M574 1000l-453 -1000h58l454 1000h-59zM304.5 901.5q34.5 -49.5 34.5 -128.5q0 -77 -37 -128t-96 -51q-61 0 -98.5 50t-37.5 129q0 76 36 127t100 51t98.5 -49.5zM261 651q15 42 15 123t-13.5 122t-56.5 41t-57.5 -41.5t-14.5 -121.5t16 -122.5t56 -42.5t55 42z
M649.5 357.5q34.5 -49.5 34.5 -128.5q0 -77 -37 -128t-96 -51q-61 0 -98.5 50t-37.5 129q0 76 36 127t100 51t98.5 -49.5zM606 107q15 42 15 123t-13.5 122t-56.5 41t-57.5 -41.5t-14.5 -121.5t16 -122.5t56 -42.5t55 42z" />
    <glyph glyph-name="ampersand" unicode="&#x26;" horiz-adv-x="877" 
d="M521.5 981q43.5 -22 62.5 -58t19 -75q0 -42 -18 -67q-14 -19 -35 -29.5t-43 -10.5q-25 0 -41.5 13.5t-16.5 39.5q0 20 13.5 35t35.5 15q9 0 13 -1t12 -1q18 0 31 12.5t13 31.5q0 24 -24 47q-13 12 -37.5 20t-53.5 8q-66 0 -114 -44.5t-48 -141.5q0 -63 33 -105.5t74 -66
t41 -19.5q0 2 -32 -4.5t-73.5 -28t-81.5 -63.5q-27 -28 -41.5 -70t-14.5 -88q0 -60 24 -113.5t73.5 -87t120.5 -33.5q65 0 112 32.5t71 81.5t24 96q0 24 -6 43q-11 35 -41.5 63.5t-73.5 31.5q-6 1 -20 1q-53 0 -94 -23t-41 -75q0 -18 6.5 -28.5t15.5 -10.5q14 0 24 23
q7 16 23 25t36 9q28 0 47 -18q21 -20 21 -51q0 -29 -16 -49q-12 -17 -31 -25.5t-41 -8.5q-41 0 -77.5 28t-46.5 75q-4 17 -4 37q0 63 52.5 103t148.5 40q51 0 119 -14q23 -5 50 -5q29 0 52 6.5t34 15.5q16 13 16 34q0 10 -4.5 17.5t-10.5 7.5q-4 0 -8 -4q-1 -1 -7 -4.5
t-16 -6.5t-22 -3q-14 0 -26 4q-14 5 -22.5 19.5t-8.5 32.5q0 25 16 42t49 17q28 0 49 -18t31.5 -46.5t8.5 -56.5q-5 -59 -41.5 -79.5t-94.5 -20.5q-9 0 -75 3q46 -20 71.5 -71.5t25.5 -111.5q0 -33 -7 -58q-21 -79 -74.5 -127.5t-145.5 -63.5q-33 -5 -60 -5
q-79 0 -147.5 33.5t-111 103t-42.5 170.5q0 107 49.5 172t111 96t61.5 24q0 -4 -33.5 16.5t-60 61t-26.5 104.5q0 76 35.5 125t83.5 70.5t87 23.5q70 3 113.5 -19z" />
    <glyph glyph-name="quotesingle" unicode="'" horiz-adv-x="181" 
d="M95.5 741q26.5 33 46 75.5t19.5 78.5q0 48 -23.5 76.5t-60.5 28.5q-29 0 -48 -18t-19 -43q0 -22 12 -37.5t34 -15.5q14 0 24 -14.5t10 -37.5q0 -27 -15.5 -56t-49.5 -56q-7 -7 -7 -14q0 -6 4.5 -10.5t11.5 -4.5q10 0 18 7q17 8 43.5 41z" />
    <glyph glyph-name="parenleft" unicode="(" horiz-adv-x="351" 
d="M152 184q-50 130 -50 318q0 85 22.5 184t71 184t120.5 125v24q-93 -42 -164.5 -122.5t-111.5 -187t-40 -222.5q0 -123 45 -234q42 -108 110.5 -180t160.5 -118v21q-114 78 -164 208z" />
    <glyph glyph-name="parenright" unicode=")" horiz-adv-x="351" 
d="M0 -45q92 46 160.5 118t110.5 180q45 111 45 234q0 116 -40 222.5t-111.5 187t-164.5 122.5v-24q72 -40 120.5 -125t71 -184t22.5 -184q0 -188 -50 -318t-164 -208v-21z" />
    <glyph glyph-name="asterisk" unicode="*" horiz-adv-x="414" 
d="M369 717q0 -16 -13 -26q-13 -9 -25 -9q-20 0 -55 42q-22 26 -44.5 45.5t-31.5 14.5q-6 -3 -6 -19t5 -39.5t11 -40.5q14 -40 14 -47q0 -16 -11 -29t-28 -13t-26 12t-9 29q0 7 17 61q15 51 15 69q0 10 -4 14q-7 6 -32.5 -13.5t-47.5 -43.5q-36 -42 -59 -42q-17 0 -26 11
q-8 9 -8 22q0 34 49 46q52 11 84 19.5t32 17.5q0 14 -116 38q-49 10 -49 46q0 13 8 22q9 10 26 10q23 0 59 -41q23 -25 48 -44.5t32 -12.5q4 4 4 14q0 18 -15 69q-17 54 -17 61q0 16 9 28t26 12t28 -12q11 -14 11 -29q0 -8 -14 -47q-6 -17 -11 -40.5t-5 -39.5q0 -17 6 -20
q9 -4 31 15t45 45q35 42 55 42q11 0 25 -8q13 -10 13 -27q0 -33 -43 -42q-54 -11 -84 -20t-29 -19q-1 -10 31 -19t82 -19q43 -9 43 -43z" />
    <glyph glyph-name="plus" unicode="+" horiz-adv-x="806" 
d="M352 457v-303l63 1v302h303v63h-302v302h-64v-302h-282v-63h282z" />
    <glyph glyph-name="comma" unicode="," horiz-adv-x="196" 
d="M97 -15q0 -23 -27 -49q-6 -9 -6 -10q0 -3 2 -5t4 -1q16 5 36.5 23t35 43.5t14.5 51.5q0 16 -7 32t-21 23q-10 5 -23 5q-19 0 -33 -14t-14 -31q0 -14 11 -22q28 -22 28 -46z" />
    <glyph glyph-name="hyphen" unicode="-" horiz-adv-x="660" 
d="M59 518v-61h538v61h-538z" />
    <glyph glyph-name="period" unicode="." horiz-adv-x="220" 
d="M78.5 93.5q-15.5 -16.5 -15.5 -39.5q0 -22 15.5 -37t37.5 -15q23 0 38 15t15 37q0 24 -15 40t-38 16q-22 0 -37.5 -16.5z" />
    <glyph glyph-name="slash" unicode="/" 
d="M506 1074l-486 -1074h58l487 1074h-59z" />
    <glyph glyph-name="zero" unicode="0" horiz-adv-x="706" 
d="M529 933q73 -67 106.5 -179.5t33.5 -253.5q0 -137 -37.5 -251t-111.5 -182t-177 -68q-104 0 -179.5 66.5t-114.5 180.5t-39 254q0 135 35.5 248.5t110 182.5t187.5 69t186 -67zM504 167q53 129 53 336q0 206 -49 333t-165 127q-117 0 -167.5 -127t-50.5 -333t54.5 -335.5
t163.5 -129.5q108 0 161 129z" />
    <glyph glyph-name="one" unicode="1" horiz-adv-x="314" 
d="M286 28q6 0 9.5 -4t3.5 -10t-4 -10t-12 -4h-75h-173q-8 0 -11.5 4t-3.5 9q0 7 4.5 11.5t10.5 3.5q12 -2 17 -2q27 0 47.5 18.5t20.5 42.5l-1 721q0 18 -11 24.5t-32 6.5q-10 0 -32 -2t-33 -2q-8 0 -20 2q-20 4 -30.5 17t-10.5 29q0 15 8.5 25t22.5 10q12 0 21 -11
q7 -7 14 -10.5t18 -3.5q39 0 66.5 33t36.5 51.5t10 19.5q4 2 26 2q36 0 36 -8l-1 -905q0 -24 18.5 -41.5t45.5 -17.5q7 0 11 1h3z" />
    <glyph glyph-name="two" unicode="2" horiz-adv-x="670" 
d="M645 11q0 -8 -12 -8h-624q-4 0 -6.5 6t-2.5 15q0 8 2 15.5t5 9.5q27 39 175 237t191 256l41 55q61 95 61 187q0 51 -19.5 91.5t-54 63.5t-77.5 23q-48 0 -81 -23t-48.5 -58.5t-15.5 -72.5q0 -35 13 -58.5t35 -23.5q10 0 18 4q9 4 20 4q21 0 37.5 -15.5t16.5 -34.5
q0 -23 -23 -41.5t-56 -18.5t-62 20q-35 23 -53.5 61.5t-18.5 83.5q0 54 26.5 103.5t79 80.5t125.5 31q64 0 117 -28.5t84 -80.5t31 -119q0 -110 -87 -234q-65 -92 -182.5 -254.5t-168.5 -233.5h303q45 0 62 7.5t21 29.5q1 3 1 9q0 7 -4 35q-6 38 -6 66q0 20 5 47q8 34 25 51
t36 17q15 0 25.5 -11t10.5 -28q0 -11 -5 -17.5t-16 -16.5t-17 -17.5t-8 -19.5q-4 -17 -4 -38q0 -77 72 -139l10 -8q3 -4 3 -10z" />
    <glyph glyph-name="three" unicode="3" horiz-adv-x="747" 
d="M356 652q63 0 127 -25.5t114 -82t67 -144.5q7 -34 7 -70q0 -93 -46 -170.5t-127.5 -122.5t-181.5 -45q-21 0 -31 1q-91 7 -155 48.5t-96 101.5t-32 122q0 47 18.5 84.5t54.5 57.5q29 16 63 16q36 0 60 -17.5t24 -47.5q0 -25 -16 -42.5t-45 -17.5q-17 0 -36 6q-5 2 -13 2
q-18 0 -29.5 -18.5t-11.5 -46.5q0 -40 22 -83t68 -75t116 -39q24 -2 35 -2q77 0 140 33.5t100 95t37 140.5q0 84 -34.5 143t-90.5 88.5t-120 29.5q-52 0 -100.5 -19.5t-84.5 -56.5q-6 -6 -13 -6q-12 0 -22.5 13.5t-10.5 27.5q0 7 5 14l326 374h-247q-45 0 -62 -7.5
t-21 -29.5q-1 -3 -1 -9q0 -9 4 -25q4 -22 4 -36q0 -12 -3 -26q-7 -33 -24 -48.5t-36 -15.5q-15 0 -26 10t-11 25q0 17 20 39q12 16 18.5 26.5t7.5 25.5l1 15q0 46 -20 64.5t-42 25.5t-24 10q-2 4 -2 6q0 5 4.5 9t13.5 4h547q10 0 10 -7q0 -3 -2.5 -7.5t-3.5 -5.5l-291 -332
q35 22 98 22z" />
    <glyph glyph-name="four" unicode="4" horiz-adv-x="633" 
d="M609.5 769.5q8.5 -8.5 8.5 -20.5t-10 -24.5t-30 -18.5q-8 -3 -24 -3t-29 3q-16 2 -22 2q-24 0 -24 -29v-92v-194h54l-23 -56h-31v-251q0 -24 18.5 -41.5t45.5 -17.5q7 0 11 1h3q6 0 9.5 -4t3.5 -10t-4 -10t-12 -4h-239q-8 0 -11.5 4t-3.5 9q0 7 4.5 11.5t10.5 3.5
q12 -2 17 -2q27 0 47.5 18.5t20.5 42.5v250h-400v49q81 81 152.5 170t99.5 181q14 43 14 79t-15 55.5t-37 19.5q-13 0 -25 -6q-7 -3 -15 -3q-18 0 -30 17t-12 38q0 11 2 16q6 20 28.5 32.5t52.5 12.5q25 0 50 -10t44 -30q40 -41 40 -113q0 -98 -72.5 -223.5t-185.5 -228.5
h308v422q13 8 30 8q11 0 23 -5q21 -36 36 -51t39 -15q4 0 16 2q10 2 16 7t7 6q6 6 10 8.5t11 2.5q14 0 22.5 -8.5z" />
    <glyph glyph-name="five" unicode="5" horiz-adv-x="662" 
d="M624.5 177q-42.5 -81 -120 -129.5t-178.5 -48.5q-97 0 -164 39.5t-99.5 102t-32.5 129.5q0 61 25.5 110t72.5 70q29 14 61 14q36 0 61 -19.5t25 -51.5q0 -25 -20 -42t-47 -17q-20 0 -36 8q-8 4 -16 4q-23 0 -38 -29t-15 -71q0 -48 21.5 -94t69 -78t122.5 -35
q78 -3 138 35.5t92.5 108.5t32.5 157q0 92 -38 155.5t-98 94.5t-126 31q-54 0 -101 -21t-76 -59q-12 -16 -37 -16q-13 0 -22 5.5t-9 15.5v452h480q12 0 12 -8q0 -5 -3 -10l-10 -8q-37 -33 -54 -57.5t-17 -48.5q0 -21 7.5 -33t21.5 -24q10 -8 15 -15.5t5 -17.5
q0 -19 -10.5 -31t-26.5 -12t-32.5 15t-27.5 46q-5 17 -5 28q0 14 6 38q4 20 4 29q0 5 -1 8q-4 22 -21 29.5t-62 7.5h-223v-307q46 33 98.5 50t107.5 17q86 0 162 -40t122.5 -117t46.5 -183q0 -96 -42.5 -177z" />
    <glyph glyph-name="six" unicode="6" horiz-adv-x="651" 
d="M562 116.5q-60 -81.5 -158 -107.5q-15 -4 -38 -6.5t-42 -2.5q-112 2 -184.5 71t-106 179.5t-33.5 242.5q0 191 55 306.5t133.5 162.5t155.5 47q69 0 120 -31.5t77 -81.5t26 -103q0 -47 -21 -76t-52 -29q-28 0 -45.5 17t-17.5 39q0 15 10 27t29 16q12 2 19 16.5t7 35.5
q0 29 -15 57t-47.5 47t-83.5 19q-95 0 -151.5 -64t-78.5 -150t-22 -161q0 -46 7 -57q37 48 100.5 84.5t144.5 33.5q91 -4 152.5 -49.5t90.5 -116t29 -152.5q0 -132 -60 -213.5zM441.5 78q45.5 40 68.5 105.5t23 139.5q0 82 -22.5 147t-66.5 101.5t-105 36.5
q-59 0 -109.5 -35.5t-80 -100.5t-29.5 -148q0 -81 26 -146t74 -102.5t112 -37.5t109.5 40z" />
    <glyph glyph-name="seven" unicode="7" horiz-adv-x="665" 
d="M3 981q-3 5 -3 10q0 8 12 8h648v-60q163 217 -20 -10t-262.5 -418t-79.5 -440q0 -47 7 -68h-79q-8 0 -11 8t-3 18q-1 13 -1 39q0 197 74 389.5t167 340.5t93 136h-270h-101q-22 -3 -32 -17t-14 -45q-1 -7 3 -38q6 -40 6 -69t-5 -50q-8 -34 -25 -51t-36 -17
q-15 0 -25.5 11t-10.5 28q0 11 5 17.5t16 16.5t17 17.5t8 19.5q4 17 4 41q0 49 -19.5 97.5t-52.5 77.5z" />
    <glyph glyph-name="eight" unicode="8" horiz-adv-x="653" 
d="M566 433.5q-52 73.5 -161 114.5q76 27 118.5 92t42.5 141q0 60 -27.5 112t-82.5 84t-134 32q-82 0 -139.5 -33t-87 -87.5t-29.5 -118.5q0 -75 40 -143.5t116 -108.5q-104 -45 -158 -106.5t-54 -161.5q0 -76 42 -134.5t111 -91t146 -32.5q82 0 153 34t113.5 96.5
t42.5 142.5q0 95 -52 168.5zM333 579q-59 28 -92 50q-40 27 -60.5 71.5t-20.5 94.5q0 47 18 87.5t52 65.5t82 25q83 0 127 -55t44 -135q0 -67 -31 -128t-87 -91zM314 464q69 -36 110 -63.5t68 -68t27 -96.5q0 -61 -25 -108t-71 -73.5t-105 -26.5q-63 0 -112 29t-76 81.5
t-27 120.5q0 87 43.5 144.5t118.5 85.5z" />
    <glyph glyph-name="nine" unicode="9" horiz-adv-x="616" 
d="M40 823.5q30 63.5 78 104.5t102 60q17 6 40.5 10.5t39.5 4.5q117 0 189 -70t102.5 -179.5t30.5 -236.5q0 -32 -4 -90q-18 -228 -101.5 -329t-213.5 -101q-67 0 -121.5 31.5t-85 80.5t-30.5 101q0 51 24 81.5t61 30.5q27 0 42 -16t15 -39q0 -19 -11.5 -34.5t-32.5 -19.5
q-19 -4 -19 -37q0 -29 18 -61t55 -54.5t91 -22.5q80 0 127.5 54t65.5 130.5t18 153.5q0 34 -3.5 60t-7.5 34q-35 -44 -90 -76t-132 -32q-94 0 -156.5 49.5t-91.5 122.5t-29 146q0 80 30 143.5zM199 924q-45 -37 -67.5 -99.5t-22.5 -137.5q0 -126 49 -204t137 -78
q57 0 105 32.5t76 94t28 144.5q0 80 -24 145t-69 102.5t-104 37.5q-63 0 -108 -37z" />
    <glyph glyph-name="colon" unicode=":" horiz-adv-x="358" 
d="M111 531q-21 -21 -21 -50t21 -50t50 -21t50 21t21 50t-21 50t-50 21t-50 -21zM111 151q-21 -21 -21 -50t21 -50t50 -21t50 21t21 50t-21 50t-50 21t-50 -21z" />
    <glyph glyph-name="semicolon" unicode=";" horiz-adv-x="409" 
d="M111 537q-21 -21 -21 -50t21 -50t50 -21t50 21t21 50t-21 50t-50 21t-50 -21zM142 -25q35 0 61.5 28.5t26.5 70.5q0 41 -21.5 69.5t-55.5 28.5q-25 0 -43.5 -17t-18.5 -40q0 -20 11 -34.5t32 -14.5q10 0 17 3q10 4 16 4q17 0 17 -22q0 -23 -14.5 -38t-36.5 -15
q-14 0 -28 7q-7 -1 -7 -8q0 -4 2 -7.5t5 -5.5q18 -9 37 -9z" />
    <glyph glyph-name="less" unicode="&#x3c;" horiz-adv-x="601" 
d="M0 424l563 -245v46l-485 210l485 213v48l-563 -247v-25z" />
    <glyph glyph-name="equal" unicode="=" horiz-adv-x="693" 
d="M80 648v-61h538v61h-538zM80 455v-61h538v61h-538z" />
    <glyph glyph-name="greater" unicode="&#x3e;" horiz-adv-x="598" 
d="M0 696v-48l485 -213l-485 -210v-46l563 245v25z" />
    <glyph glyph-name="question" unicode="?" horiz-adv-x="545" 
d="M260 268q0 56 22.5 95t65.5 85q21 23 38 40l30 30q48 47 73.5 78t42 70.5t16.5 91.5q0 59 -32.5 115t-93 91.5t-138.5 35.5q-68 0 -126.5 -31t-93 -85t-34.5 -119q0 -10 2 -32q7 -47 34.5 -69t58.5 -22q11 0 23 4q21 8 30.5 21.5t9.5 29.5t-10 31.5t-24 23.5
q-20 9 -29.5 26.5t-9.5 39.5q0 33 21 66.5t59.5 55t87.5 21.5q52 0 93 -27.5t63 -73.5t22 -100q0 -45 -15 -82t-37 -65.5t-62 -71.5q-57 -61 -82 -98q-23 -33 -37 -73t-14 -80q0 -48 19 -83l34 1q-7 31 -7 60zM206 126.5q-21 -21.5 -21 -50.5t21 -50t50 -21t50 21t21 50
q0 30 -20.5 51t-50.5 21q-29 0 -50 -21.5z" />
    <glyph glyph-name="at" unicode="@" horiz-adv-x="886" 
d="M697 820.5q89 -59.5 131.5 -149t42.5 -185.5q0 -87 -34 -157q-24 -49 -78.5 -94t-138.5 -45q-50 0 -79.5 17.5t-41 39.5t-11.5 38q-6 -16 -28 -36t-56 -34.5t-72 -14.5q-72 0 -111 51q-38 49 -38 125q0 74 38 149t101.5 123.5t136.5 48.5q15 0 23 -1q28 -3 50.5 -13.5
t39.5 -32.5l7 21h88h51q8 0 8 -6q0 -3 -2 -5.5t-6 -2.5q-31 0 -58 -64l-11 -36q-23 -71 -39 -129q-27 -97 -27 -122q0 -12 9 -30q9 -15 22.5 -21t33.5 -6q44 0 86.5 28.5t63.5 92.5q18 56 18 119q0 89 -35 172t-113 137t-199 54q-113 0 -198.5 -59.5t-133 -151.5t-53.5 -187
q-1 -9 -1 -27q0 -100 41.5 -187.5t122.5 -141t194 -53.5q54 0 108.5 22t92.5 59l29 -21q-88 -96 -249 -96q-110 0 -202 52.5t-146 145t-54 206.5q0 130 64.5 241t170.5 174t223 58q130 -6 219 -65.5zM530 562q0 34 -19 55q-18 20 -52 20q-65 0 -120 -103q-56 -100 -56 -193
q0 -44 21 -68q21 -26 57 -26q77 0 122 128q47 130 47 187z" />
    <glyph glyph-name="A" unicode="A" horiz-adv-x="772" 
d="M815 11q2 -2 2 -5q0 -6 -8 -6h-229q-4 0 -6 2t-2 4q0 3 2.5 5t5.5 2q34 1 46 14.5t10 35.5l-85 293q0 4 -15.5 29t-47.5 53.5t-81 45.5q-62 21 -102 21q-15 0 -23 -2.5t-8 -3.5l-123 -427q-2 -12 -2 -17q0 -41 56 -42q4 0 6 -2t2 -5q0 -2 -2 -4t-6 -2h-197q-8 0 -8 6
q0 3 2.5 5t5.5 2q45 0 67.5 22t33.5 54l239 824q2 16 2 25q0 22 -12.5 35t-46.5 14q-3 0 -5.5 2.5t-2.5 4.5t2 4t6 2h153l264 -911q8 -39 37 -57.5t64 -18.5q4 0 6 -2zM486 505q26 -12 26 -14l-120 413l-102 -350q15 1 46.5 -3t69.5 -16q54 -18 80 -30z" />
    <glyph glyph-name="B" unicode="B" 
d="M460.5 480.5q54.5 -36.5 87.5 -92.5t33 -126q0 -26 -4 -47q-6 -40 -31 -88.5t-85.5 -87.5t-161.5 -39h-6h-1h-294q-4 0 -6 2t-2 4q0 3 2 5.5t6 2.5q45 1 60.5 24.5t15.5 51.5v824q0 28 -15.5 51.5t-60.5 24.5q-4 0 -6 2.5t-2 5.5q0 2 2 4t6 2h155v-1h1v1h2q44 19 111 24
q8 1 22 1q69 0 127 -30t92 -85.5t34 -128.5q0 -30 -6 -63q-7 -34 -31.5 -74t-66.5 -73t-96 -43q64 -15 118.5 -51.5zM153 563q41 -10 81 -10q70 0 118 31.5t71.5 82t23.5 108.5q0 52 -18.5 99t-54 79t-83.5 38q-14 2 -39 2q-19 0 -28 -1q-68 -13 -70 -84v-24v3zM371.5 61
q53.5 31 79.5 83.5t26 114.5q0 57 -22 109.5t-64 89t-100 46.5q-41 7 -74 7q-37 0 -64 -9v-402q0 -56 68 -66l20 -1q77 -3 130.5 28z" />
    <glyph glyph-name="C" unicode="C" horiz-adv-x="634" 
d="M637 993q0 10 -11 10q-6 0 -10 -2q-23 -11 -42 -11q-15 0 -29 6.5t-17 7.5q-27 12 -48.5 18.5t-54.5 6.5q-87 0 -182.5 -48t-163.5 -163.5t-68 -303.5q0 -191 65 -306t153 -161.5t164 -46.5q64 0 106 26t61 58.5t23 56.5q2 10 2 28q0 33 -12.5 57.5t-33.5 37.5
q-11 8 -27 8q-17 0 -30.5 -10.5t-16.5 -31.5q-2 -14 11.5 -28.5t28.5 -14.5q7 0 11 3q6 2 9 2q7 0 13.5 -11.5t6.5 -28.5q0 -36 -30 -74q-39 -49 -123 -49q-68 0 -131.5 48.5t-105.5 160.5t-42 290q0 210 62.5 315t125 131.5t94.5 26.5q2 0 10 1t20 1q36 0 65 -15.5
t32 -56.5q-1 -11 -6 -41.5t-12 -39.5q-5 -6 0 -14t14 -8q12 0 22 15q5 8 25 52q13 31 21 45q9 13 15 18.5t13 10t13 8.5q10 7 10 16z" />
    <glyph glyph-name="D" unicode="D" horiz-adv-x="682" 
d="M410.5 978.5q80.5 -22.5 163 -126.5t82.5 -319q0 -217 -65.5 -335t-148 -157.5t-158.5 -40.5h-286v1q-4 0 -6 2t-2 4q0 3 2 5t6 2q45 1 60.5 25t15.5 51v822q0 27 -15.5 51t-60.5 25q-4 0 -6 2.5t-2 4.5t2 4t6 2h283q49 0 129.5 -22.5zM168 48q14 -23 55 -23h52
q115 0 193.5 105t78.5 403q0 205 -58.5 303.5t-131.5 125.5t-73 14h-61q-39 0 -54 -23.5t-15 -48.5v-807q0 -26 14 -49z" />
    <glyph glyph-name="E" unicode="E" 
d="M578.5 13q1.5 -1 2.5 -2t2 -2.5t1 -3.5q0 -5 -9 -5l-567 -1q-8 0 -8 6q0 3 2.5 5t5.5 2q45 1 60 25t15 51v825q0 27 -15 51t-60 25q-3 0 -5.5 2.5t-2.5 4.5q0 6 8 6h567q13 0 6 -12q-1 0 -2.5 -0.5t-3.5 -4.5q-27 -36 -40.5 -78.5t-13.5 -79.5q0 -15 4 -35q1 -4 6.5 -10
t8.5 -11.5t1 -15.5q-3 -9 -12 -14t-21 -5q-15 0 -27 8t-12 21t5 28q5 22 6 28q5 33 5 53q0 29 -11 54q-22 48 -103 48h-142q-37 -3 -51 -24.5t-15 -46.5v-311q3 -23 18 -40.5t48 -20.5l78 1q25 0 46 15.5t21 72.5q9 10 22 10q9 0 9 -5q-7 -43 -7 -111t7 -110q0 -5 -10 -5
q-12 0 -21 10q0 39 -15 58.5t-33.5 25.5t-18.5 4h-78q-33 -3 -48 -20.5t-18 -39.5v-342q1 -25 15 -46.5t51 -24.5h142q81 0 103 48q12 26 12 82t-13 127q-2 11 -5 26t-3 28q0 18 13 28t30 10q13 0 23 -6t13 -17q2 -8 2 -12q0 -11 -8.5 -19.5t-9.5 -11.5q-4 -22 -4 -51
q0 -64 13 -135.5t38 -105.5q2 -3 3.5 -4z" />
    <glyph glyph-name="F" unicode="F" 
d="M592 988q-1 -1 -2.5 -1.5t-4.5 -3.5q-26 -36 -39.5 -78.5t-13.5 -80.5q0 -19 3 -34q1 -3 7 -9.5t9 -12t0 -15.5q-2 -9 -11 -14.5t-21 -5.5q-16 0 -27.5 8t-11.5 22q0 13 5 28q5 22 6 28q1 10 3 25.5t2 26.5q0 28 -12 53q-12 27 -39 37t-64 11h-151q-63 -7 -66 -72v-308
q3 -23 17.5 -40.5t47.5 -20.5l79 1q0 -2 21.5 4.5t38.5 26t17 57.5q8 9 21 9q9 0 9 -4q-6 -44 -6 -111t6 -111q0 -4 -9 -4q-13 0 -21 9q0 38 -17 57.5t-38.5 26t-21.5 4.5l-79 1q-33 -3 -47.5 -20.5t-17.5 -40.5v-350q0 -75 75 -76q4 0 6 -2t2 -5q0 -6 -8 -6h-231q-4 0 -6 2
t-2 4q0 3 2.5 5t5.5 2q45 1 60.5 25t15.5 51v825q0 27 -15.5 51t-60.5 25q-3 0 -5.5 2.5t-2.5 4.5t2 4t6 2h578q13 0 6 -12z" />
    <glyph glyph-name="G" unicode="G" horiz-adv-x="714" 
d="M687 494q11 0 16.5 -4t5.5 -10q0 -5 -4 -9.5t-9 -4.5q-46 0 -58.5 -15.5t-12.5 -40.5v-378q0 -22 -2 -27t-10 -5h-4q-11 0 -20 8.5t-13 16.5q-18 30 -39 30q-15 0 -34 -15q-46 -37 -113 -37q-31 0 -58.5 7t-43.5 14q-116 45 -197 162t-81 339q0 221 92.5 327.5
t181.5 128.5t146 22q44 0 71.5 -8.5t56.5 -23.5q19 -10 28.5 -13.5t21.5 -3.5q19 0 42 11q3 2 9 2q11 0 11 -10t-10 -17q-5 -4 -12.5 -8.5t-13.5 -10.5t-14 -18q-9 -12 -25 -52q-18 -41 -22 -46q-10 -15 -22 -15q-9 0 -14 8t0 14q7 10 12 40.5t6 41.5q-5 41 -33.5 59.5
t-61 23t-32.5 1.5q-44 0 -110 -21t-136 -125.5t-70 -323.5q0 -172 43.5 -277t105 -149.5t123.5 -48.5q62 0 99.5 30.5t52.5 71t15 74.5l1 204q0 22 -10 32.5t-25 10.5t-28 -8.5t-13 -18.5q0 -2 4 -8q5 -5 5 -10q1 -3 1 -8q0 -15 -9.5 -27t-26.5 -14q-20 -2 -35 11.5
t-15 38.5q0 82 124 82h102h45h11h5z" />
    <glyph glyph-name="H" unicode="H" horiz-adv-x="665" 
d="M576 914q0 25 20 50t66 26q4 0 6 2.5t2 4.5t-2 4t-6 2h-246q-7 0 -7 -6q0 -2 2 -4.5t5 -2.5q46 -1 63 -25.5t17 -50.5v-321q0 -59 -25.5 -58.5t-26.5 0.5h-246l-9 -0.5t-20 6t-17 19.5v354q0 27 15 51t61 25q4 0 6 2.5t2 4.5t-2 4t-6 2h-241q-7 0 -7 -6q0 -2 2 -4.5
t5 -2.5q46 -1 66 -26t20 -50v-825q0 -25 -20 -50t-66 -26q-3 0 -5 -2.5t-2 -4.5q0 -6 7 -6h241q4 0 6 2t2 4q0 3 -2 5t-6 2q-46 1 -61 25t-15 51v388q6 13 15 17t17 4t11 1h252q3 -1 16.5 -1.5t23 -13.5t9.5 -42v-353q0 -27 -15 -51t-61 -25q-3 0 -5 -2.5t-2 -4.5q0 -6 7 -6
h242q4 0 6 2t2 4q0 3 -2 5t-6 2q-46 1 -66 26t-20 50v825z" />
    <glyph glyph-name="I" unicode="I" horiz-adv-x="253" 
d="M245 11q2 -2 2 -5q0 -2 -2 -4t-6 -2h-231q-4 0 -6 2t-2 4q0 3 2.5 5t5.5 2q45 1 60.5 25t15.5 51v825q0 27 -15.5 51t-60.5 25q-3 0 -5.5 2.5t-2.5 4.5t2 4t6 2h231q4 0 6 -2t2 -4t-2 -4.5t-6 -2.5q-45 -1 -60.5 -25t-15.5 -51v-825q0 -27 15.5 -51t60.5 -25q4 0 6 -2z
" />
    <glyph glyph-name="J" unicode="J" horiz-adv-x="501" 
d="M295 974q40 -3 53.5 -26.5t13.5 -49.5v-653q0 -70 -21.5 -119t-54 -73t-67.5 -24q-18 0 -27 1q-75 4 -111 48q-30 38 -30 75q0 17 6.5 28.5t13.5 11.5q3 0 9 -3q4 -3 11 -3q15 0 28.5 15t11.5 29q-3 20 -16.5 30.5t-30.5 10.5q-15 0 -27 -7q-21 -14 -34 -39t-13 -58
q0 -8 2 -26q4 -23 23.5 -54t60.5 -57t105 -30q5 -1 18 -1q53 0 104 25t84.5 77t33.5 128v681q0 25 20 50t66 26q3 0 5 2.5t2 4.5q0 6 -7 6h-459q-4 0 -6 -2t-2 -4t2.5 -4.5t5.5 -2.5q18 0 22 -22.5t4 -41.5q0 -37 -2 -51q-4 -9 1 -14t15 -5t18.5 6.5t9.5 17.5q0 42 9 63
t17 25.5t22 8.5h111z" />
    <glyph glyph-name="K" unicode="K" horiz-adv-x="653" 
d="M650 11q2 -2 2 -5q0 -2 -2 -4t-6 -2h-226q-4 0 -6 2t-2 4q0 3 2.5 5t5.5 2q39 0 39 25q0 10 -10 36l-245 449l-68 -98v-336q0 -27 15 -51t60 -25q4 0 6 -2t2 -5q0 -6 -8 -6h-231q-8 0 -8 6q0 3 2 5t6 2q45 1 60.5 25t15.5 51v825q0 27 -15.5 51t-60.5 25q-4 0 -6 2.5
t-2 4.5q0 6 8 6h231q8 0 8 -6q0 -2 -2 -4.5t-6 -2.5q-45 -1 -60 -25t-15 -51v-405l290 430q6 9 6 18q0 13 -12 21.5t-33 8.5q-3 0 -5.5 2.5t-2.5 4.5t2 4t6 2h185q4 0 6 -2t2 -4t-2 -4.5t-6 -2.5q-27 0 -43 -9t-34 -34l-235 -339q72 -136 166.5 -310t123.5 -227
q12 -21 40 -38t56 -17q4 0 6 -2z" />
    <glyph glyph-name="L" unicode="L" horiz-adv-x="602" 
d="M583 8.5q1 -1.5 1 -3.5q0 -5 -9 -5h-567q-4 0 -6 2t-2 4q0 3 2.5 5t5.5 2q45 1 60.5 24.5t15.5 51.5v821q0 27 -15.5 51t-60.5 25q-3 0 -5.5 2.5t-2.5 4.5t2 4t6 2h76h79h76q7 0 7 -6q0 -2 -2 -4.5t-5 -2.5q-45 -1 -60.5 -25t-15.5 -51v-809q0 -25 13.5 -48t52.5 -27h142
q81 0 103 48q11 23 11 80q0 62 -12 129q-5 40 -5 54q1 19 12 29t27 10t27.5 -9.5t11.5 -26.5q0 -11 -8.5 -19.5t-9.5 -11.5q-4 -22 -4 -51q0 -64 13 -135.5t38 -105.5q2 -3 3.5 -4t2.5 -2t2 -2.5z" />
    <glyph glyph-name="M" unicode="M" horiz-adv-x="762" 
d="M672 914q0 27 15.5 51t60.5 25q4 0 6 2.5t2 4.5q0 6 -8 6h-154l-202 -623l-194 623h-181q-7 0 -7 -6q0 -2 2 -4.5t5 -2.5q50 0 63.5 -24t13.5 -42v-835q0 -27 -15.5 -51t-60.5 -25q-3 0 -5 -2.5t-2 -4.5q0 -6 7 -6h208q4 0 6 2t2 4q0 3 -2 5t-6 2q-46 1 -61 25t-15 52
v758l221 -668l222 658v-748q0 -28 -15.5 -52t-60.5 -25q-3 0 -5.5 -2t-2.5 -5q0 -6 8 -6h231q8 0 8 6q0 3 -2 5t-6 2q-45 1 -60.5 25t-15.5 52v824z" />
    <glyph glyph-name="N" unicode="N" horiz-adv-x="670" 
d="M161 998h-154q-7 0 -7 -6q0 -2 2 -4.5t5 -2.5q51 0 64 -30.5t13 -54.5v-811q0 -27 -15 -51t-61 -25q-3 0 -5 -2.5t-2 -4.5q0 -6 7 -6h208q4 0 6 2t2 4q0 3 -2 5t-6 2q-45 1 -60.5 25t-15.5 51v736l420 -824v-1h40v911q3 75 77 76q4 0 6 2.5t2 5.5q0 2 -2 4t-6 2h-210
q-4 0 -6 -2t-2 -4q0 -3 2 -5.5t6 -2.5q46 -1 61 -24.5t15 -51.5v-689z" />
    <glyph glyph-name="O" unicode="O" horiz-adv-x="795" 
d="M728 320q-20 -111 -99.5 -215.5t-238.5 -104.5h-12q-161 0 -240.5 107t-98.5 218.5t-19 190.5q0 184 57.5 292t138.5 150t162 42h12q80 0 159 -42t136 -150t63 -292v-7q0 -78 -20 -189zM565.5 135q71.5 103 71.5 364q0 268 -70.5 368.5t-176.5 103.5h-12
q-105 -3 -174.5 -100t-72.5 -355q3 -272 73 -378t174 -109h4h8q104 3 175.5 106z" />
    <glyph glyph-name="P" unicode="P" horiz-adv-x="580" 
d="M7 999q-7 0 -7 -6q0 -2 2 -4.5t5 -2.5q45 -1 60.5 -25t15.5 -51v-821q0 -27 -15.5 -51t-60.5 -25q-3 0 -5 -2.5t-2 -4.5q0 -6 7 -6h231q7 0 7 6q0 2 -2 4.5t-5 2.5q-45 1 -60.5 25t-15.5 51v806q0 36 15.5 60.5t60.5 30.5h2q8 1 25 1q22 0 34 -2q54 -7 94 -44t60.5 -92
t20.5 -115q0 -64 -24 -120.5t-73.5 -91.5t-120.5 -35q-11 0 -33 2q-12 2 -19 -3.5t-7 -13.5q0 -4 2 -7t6 -4q8 -1 28 -4t41 -3q104 0 171.5 43.5t98 109t30.5 132.5q0 93 -35 157t-96 96t-140 32q-78 0 -136 -25h-160z" />
    <glyph glyph-name="Q" unicode="Q" horiz-adv-x="741" 
d="M347 107v-11q1 -28 16.5 -42.5t35.5 -14.5q11 0 20.5 5t13.5 13q3 8 3 14t-1 11t-2 6q0 2 14.5 -3.5t26 -19t11.5 -38.5q0 -10 -1 -16q-4 -26 -24.5 -41t-50.5 -15q-33 0 -63 17q-46 25 -62 90q-2 18 -2 26q0 9 2 25q-134 24 -197 123.5t-75 183t-12 140.5v7
q0 173 57.5 271.5t138 135t162.5 36.5h12q81 0 159 -36.5t133.5 -135t55.5 -271.5v-7q0 -72 -13 -162t-90.5 -190.5t-244.5 -100.5h-12h-11zM163.5 265q50.5 -100 129.5 -123q23 49 75 82.5t140 33.5q25 0 54 -3q24 50 39 130.5t16 181.5q-2 167 -38 259t-89 124.5
t-120 33.5h-12q-67 -1 -120.5 -33.5t-89.5 -124.5t-37 -259q2 -202 52.5 -302zM539 217q-7 1 -20 1q-55 0 -102 -22t-63 -63h4h4h8q108 2 169 84z" />
    <glyph glyph-name="R" unicode="R" horiz-adv-x="630" 
d="M7 1001q-8 0 -8 -6q0 -2 2.5 -4.5t5.5 -2.5q45 -1 60 -24t15 -50v-825q0 -27 -15 -51t-60 -25q-3 0 -5.5 -2t-2.5 -5q0 -6 8 -6h232q4 0 6 2t2 4q0 3 -2 5t-6 2q-45 1 -60.5 25t-15.5 51v425q26 -7 48 -10.5t54 -3.5q17 -10 21 -24q29 -98 48.5 -153t56.5 -123.5
t97 -147.5q7 -14 7 -21q0 -19 -37 -18q-3 0 -5 -2.5t-2 -4.5q0 -6 7 -6h187q7 0 7 6q0 2 -2 4.5t-5 2.5q-60 0 -118 90t-96 204.5t-38 166.5q-33 5 -50.5 10.5t-33.5 18.5q73 9 125.5 48t81 84t33.5 75q5 35 5 62q0 78 -33.5 136t-91 89t-128.5 31q-73 0 -133 -27h-161z
M163 897q0 33 20 63t71 31q19 1 47 -2q48 -6 83.5 -39t54 -82t18.5 -103q0 -61 -23.5 -113.5t-71.5 -85t-118 -32.5q-40 0 -81 10v353z" />
    <glyph glyph-name="S" unicode="S" horiz-adv-x="534" 
d="M506 226q0 -63 -34.5 -115.5t-94.5 -83t-133 -30.5q-37 0 -71 7q-65 14 -101 53.5t-48.5 77.5t-12.5 54l-1 19q0 53 21 93.5t54.5 62t70.5 21.5q18 0 31 -4q39 -12 51 -40v-1q0 -3 -5 -3t-9 3q-17 24 -50 24q-47 0 -76.5 -46t-29.5 -108q0 -71 39.5 -124t117.5 -60
q110 -2 148 50.5t38 110.5t-28 112t-67.5 98.5t-108.5 112.5q-65 62 -104 105.5t-65.5 94t-26.5 103.5q-1 94 50.5 140.5t126.5 46.5q78 0 128 -1q21 2 44 5.5t27 6.5q2 2 6 2q3 0 5 -1t3 -2q0 3 -9 -22t-16.5 -62t-7.5 -81q0 -14 2 -44q0 -15 -13 -15q-9 0 -21 6l-8 4
q1 4 4 19.5t3 34.5q0 74 -49 105q-30 17 -72 17q-40 0 -74.5 -17t-46.5 -45q-10 -25 -10 -49q0 -75 79 -171q35 -42 105 -112q94 -94 166 -177q73 -84 73 -175z" />
    <glyph glyph-name="T" unicode="T" horiz-adv-x="795" 
d="M-2 1000q-13 0 -6 -12q1 -1 2.5 -1.5t4.5 -3.5q25 -35 37.5 -79.5t12.5 -84.5q0 -17 -4 -39q-1 -3 -9.5 -11.5t-8.5 -19.5q0 -16 12 -26t27 -10q16 0 27.5 10.5t11.5 29.5q0 26 -5 53q-2 10 -7 39t-5 42q0 10 2.5 17.5t8.5 21.5q22 48 102 48h67q40 -4 53.5 -27.5
t13.5 -48.5l2 -809q0 -26 -16.5 -50.5t-61.5 -25.5q-3 0 -5.5 -2t-2.5 -5q0 -2 2 -4t6 -2h231q8 0 8 6q0 3 -2 5t-6 2q-38 1 -56.5 21.5t-18.5 43.5v820q-1 25 12.5 48.5t53.5 27.5h75q80 0 103 -48q1 -3 6 -14.5t5 -23.5q0 -9 -5 -41l-7 -41q-5 -27 -5 -53
q1 -19 12.5 -29.5t26.5 -10.5q16 0 27.5 10t11.5 26q0 11 -8.5 19.5t-9.5 11.5q-4 16 -4 41q0 40 12.5 84t37.5 78q3 3 4.5 3.5t2.5 1.5q2 4 2 7q0 5 -8 5h-762z" />
    <glyph glyph-name="U" unicode="U" horiz-adv-x="650" 
d="M414 1000q-7 0 -7 -6q0 -2 2 -4t5 -2q44 -1 58.5 -24t14.5 -49v-668q0 -65 -35 -144t-152 -79q-107 0 -138 64t-31.5 108.5t-1.5 50.5v677q2 24 18 43.5t54 20.5q4 0 6 2t2 4t-2 4t-6 2h-224q-7 0 -7 -6q0 -2 2 -4t5 -2q43 -1 58 -24t15 -49v-634v-31q0 -99 49.5 -174.5
t208.5 -75.5q111 0 167.5 46.5t72.5 109t16 137.5v622q0 26 14.5 49t57.5 24q4 0 6 2t2 4t-2 4t-6 2h-222z" />
    <glyph glyph-name="V" unicode="V" horiz-adv-x="833" 
d="M814 997q0 -9 -9 -9q-36 0 -59 -17t-33 -36.5t-10 -23.5l-286 -900q-4 -11 -11 -11q-6 0 -10 11q-5 11 -133.5 385t-175.5 512q0 3 -13 24t-37 39t-58 17q-4 0 -6.5 3t-2.5 6t2.5 5t6.5 2h238q4 0 6 -2t2 -4t-2 -4.5t-6 -2.5q-27 0 -38.5 -14t-11.5 -34q0 -13 4 -29
l245 -727l228 735q4 12 4 21q0 20 -13 34t-41 14q-3 0 -5.5 2.5t-2.5 4.5q0 6 8 6h211q9 0 9 -7z" />
    <glyph glyph-name="W" unicode="W" horiz-adv-x="988" 
d="M827 1000q-6 0 -6 -6q0 -8 6 -8q26 0 35.5 -11t9.5 -34q0 -13 -1 -20l-180 -742l-175 731q-1 6 -2 14t-1 18q0 21 9.5 32.5t34.5 11.5q3 0 4.5 2.5t1.5 4.5q0 7 -6 7h-192q-4 0 -6 -2.5t-2 -5.5q0 -4 2 -7t6 -3q26 1 39.5 -6t20 -19t12.5 -34l7 -22l52 -240l-154 -482
l-201 731q-4 24 -4 34q0 42 42 42q3 0 5 2.5t2 5.5q0 6 -7 6h-208q-8 0 -8 -8q0 -4 2 -7t6 -3q28 1 48.5 -17t32 -39.5t11.5 -24.5l246 -901h36l177 556l137 -556h37l233 906q0 4 10.5 23t33.5 36t61 17q4 0 6 3t2 7q0 3 -2 5.5t-6 2.5h-207z" />
    <glyph glyph-name="X" unicode="X" horiz-adv-x="648" 
d="M604 29.5q22 -16.5 50 -16.5q4 0 6 -2t2 -5q0 -2 -2 -4t-6 -2h-211q-4 0 -6 2t-2 4q0 3 2.5 5t5.5 2q46 0 46 34q0 14 -6 30l-145 335l-149 -343q-6 -10 -6 -21q0 -16 13 -25.5t37 -9.5q4 0 6 -2t2 -5q0 -2 -2 -4t-6 -2h-225q-8 0 -8 6q0 3 2.5 5t5.5 2q39 1 59 14t36 42
l192 431l-188 431q-15 29 -35 42t-60 14q-3 0 -5.5 2.5t-2.5 4.5q0 6 8 6h231q4 0 6 -2t2 -4t-2 -4.5t-6 -2.5q-47 0 -47 -33q0 -12 7 -31l135 -335l145 335q7 19 7 31q0 33 -47 33q-3 0 -5.5 2.5t-2.5 4.5t2 4t6 2h218q4 0 6 -2t2 -4t-2 -4.5t-6 -2.5q-54 0 -93 -69l-4 -7
l-186 -411l179 -411l4 -7q21 -36 43 -52.5z" />
    <glyph glyph-name="Y" unicode="Y" horiz-adv-x="632" 
d="M459 1000q-4 0 -6 -2t-2 -4t2.5 -4.5t5.5 -2.5q50 0 50 -35q0 -7 -2 -13.5t-3 -8.5l-168 -402l-168 396q-6 20 -6 28q0 35 47 35q3 0 5 2.5t2 4.5q0 6 -7 6h-212q-7 0 -7 -6q0 -2 2 -4.5t5 -2.5q31 -1 43 -10.5t19.5 -24t12.5 -22.5l209 -463v-378q0 -27 -15.5 -51
t-60.5 -25q-3 0 -5.5 -2t-2.5 -5q0 -2 2 -4t6 -2h233q4 0 6 2t2 4q0 3 -2 5t-6 2q-45 1 -60.5 25t-15.5 51v378l198 475q0 3 7 14t25 21t48 10q3 0 5 2.5t2 4.5q0 6 -7 6h-181z" />
    <glyph glyph-name="Z" unicode="Z" horiz-adv-x="682" 
d="M668 995q0 -3 -2 -5.5t-6 -2.5q-30 0 -54.5 -21t-53.5 -70l-397 -787q-6 -12 -6 -26q0 -20 16.5 -33t50.5 -13h184l37 -1q45 0 75.5 26t30.5 102q0 19 -1 30q0 5 -2 21q-3 15 -3 32q1 20 12.5 30t27.5 10q15 0 26.5 -9.5t11.5 -26.5q0 -11 -8.5 -19.5t-9.5 -11.5
q-4 -16 -4 -41q0 -40 12.5 -83.5t37.5 -77.5q3 -3 4.5 -4t2.5 -2q2 -4 2 -6q0 -6 -8 -6l-602 1q-22 -1 -22 15q0 7 4 12l441 871q4 12 4 18q0 21 -19.5 34t-56.5 13h-74h-87q-44 -4 -53 -28q-2 -8 -2 -12q0 -11 5 -31q6 -22 8 -36q6 -32 6 -53q-1 -20 -12.5 -30t-27.5 -10
t-27.5 9.5t-11.5 26.5q0 11 9 19.5t10 11.5q4 22 4 32q0 27 -12 55t-39 65q-2 4 -4 4.5t-3 1.5q-2 4 -2 7q0 5 8 5h572q8 0 8 -6z" />
    <glyph glyph-name="bracketleft" unicode="[" horiz-adv-x="331" 
d="M184 7v982h92v41h-166v-1063h166v40h-92z" />
    <glyph glyph-name="backslash" unicode="\" horiz-adv-x="355" 
d="M257 0h58l-246 1000h-59z" />
    <glyph glyph-name="bracketright" unicode="]" horiz-adv-x="271" 
d="M0 -33h166v1063h-166v-41h92v-982h-92v-40z" />
    <glyph glyph-name="asciicircum" unicode="^" horiz-adv-x="564" 
d="M248 790l-248 -444l61 1l200 365l210 -366l59 1l-257 443h-25z" />
    <glyph glyph-name="underscore" unicode="_" 
d="M60 34v-34h435v34h-435z" />
    <glyph glyph-name="a" unicode="a" horiz-adv-x="441" 
d="M173 -1q-63 0 -97.5 24t-45.5 54t-10 54q3 50 31.5 80.5t66 45.5t94.5 30q39 10 57.5 16.5t26.5 17.5l1 47q0 58 -19.5 97.5t-75.5 39.5q-42 0 -65 -24.5t-23 -53.5q0 -15 5 -23q4 -7 14 -17q9 -8 13 -15.5t4 -21.5q-1 -18 -13 -29t-29 -11q-14 0 -26.5 9t-18.5 27
q-6 17 -6 38q0 36 18 70.5t56 57.5t94 23q76 0 116.5 -49t40.5 -137v-253q0 -24 2 -39t13 -29t36 -14q4 0 6 -2.5t2 -5.5q0 -6 -8 -6h-137v34q-50 -35 -123 -35zM134.5 57.5q29.5 -23.5 71.5 -23.5q31 0 57 11.5t33 27.5v216q-7 -6 -21.5 -11.5t-31.5 -10.5
q-41 -14 -69 -27.5t-48.5 -40t-20.5 -68.5q0 -50 29.5 -73.5z" />
    <glyph glyph-name="b" unicode="b" horiz-adv-x="604" 
d="M372 536q57 0 105.5 -33t77.5 -93t29 -136q0 -18 -1 -27q-4 -53 -29 -109t-84.5 -97t-156.5 -41h-167h-46q-4 0 -6 2t-2 4q0 3 2.5 5t5.5 2q27 0 36 17t10 42v841q0 28 -15 52t-61 25q-3 0 -5.5 2.5t-2.5 4.5t2 4t6 2h17q8 0 33.5 2t38.5 4q21 3 39 10.5t25 13.5q4 3 7 3
q6 0 6 -6q0 -3 -3 -32.5t-3 -93.5v-429q7 12 37 31t73 27q16 3 32 3zM452 104.5q42 73.5 42 179.5q0 92 -35.5 150.5t-110.5 58.5q-11 0 -17 -1q-33 -3 -66 -29t-35 -54v-307q0 -30 24.5 -50t62.5 -20h5q88 -1 130 72.5z" />
    <glyph glyph-name="c" unicode="c" horiz-adv-x="465" 
d="M422.5 176q13.5 -18 13.5 -43q0 -11 -3 -20q-16 -66 -67 -89.5t-97 -23.5q-114 0 -180 67t-76 181q-1 10 -1 30q0 74 32.5 132.5t88 90.5t120.5 32q30 0 51.5 -6.5t52.5 -19.5q12 -6 24 -10.5t22 -4.5q7 0 16 3q2 1 6 1q8 0 8 -7q0 -6 -8 -11q-5 -3 -12.5 -8t-16.5 -18
q-6 -8 -19 -35q-3 -6 -8.5 -18t-8.5 -15q-7 -10 -15 -10q-7 0 -10.5 6t0.5 11q5 6 8.5 23.5t4.5 23.5q1 17 -5 28.5t-16 21.5q-14 13 -32 17.5t-31 3.5q-78 -5 -118.5 -66.5t-40.5 -153.5l1 -23q6 -105 40 -158.5t73.5 -71t39.5 -11.5q6 -1 18 -1q36 0 62.5 13.5t39.5 33
t13 37.5q0 9 -3 15q-2 3 -7 5t-8 2q-12 -1 -20.5 8.5t-7.5 21.5q0 17 11.5 25.5t26.5 8.5q25 0 38.5 -18z" />
    <glyph glyph-name="d" unicode="d" horiz-adv-x="508" 
d="M492 11q2 -2 2 -5q0 -2 -2 -4t-6 -2h-46h-182q-153 0 -204 89t-51 186q0 76 29 135.5t78.5 92t108.5 32.5q10 0 28 -2q45 -6 73 -25t36 -33v451q-2 25 -19 44t-56 20q-3 0 -5.5 2.5t-2.5 4.5t2 4t6 2h17q8 0 33.5 2t38.5 4q21 3 39 10.5t25 13.5q4 3 7 3q6 0 6 -6
q0 -3 -3 -32.5t-3 -93.5l-1 -815v-16q1 -26 10 -43t36 -17q4 0 6 -2zM331.5 52.5q24.5 20.5 24.5 49.5v312q-2 27 -27.5 49t-65.5 29q-14 2 -21 2q-45 0 -79.5 -29t-52.5 -77t-18 -103q0 -106 42 -180t130 -73h5v0q38 0 62.5 20.5z" />
    <glyph glyph-name="e" unicode="e" horiz-adv-x="461" 
d="M99 269q0 -1 -0.5 -6t-0.5 -14q0 -72 33 -144t127 -79q36 -3 65 11t45.5 35.5t16.5 38.5q0 6 -4 12q-3 3 -7.5 5.5t-7.5 2.5q-12 -1 -20.5 8.5t-8.5 21.5q1 17 13 26.5t27 9.5q24 0 37 -18.5t13 -44.5q0 -33 -20.5 -64t-59.5 -50.5t-90 -19.5q-82 0 -136 38t-80 99.5
t-26 135.5q0 75 26.5 133.5t78 92t123.5 33.5q52 0 97.5 -24.5t73 -76t27.5 -126.5q0 -10 -2 -36h-340zM359 325q0 77 -32.5 126.5t-91.5 49.5q-54 0 -85 -36.5t-42 -83t-9 -79.5h259q1 8 1 23z" />
    <glyph glyph-name="f" unicode="f" horiz-adv-x="373" 
d="M442 858q0 -24 -9 -47q-7 -17 -20 -25.5t-27 -8.5q-16 0 -28 11t-12 28t5.5 25.5t14.5 15.5t15 12t6 24q0 32 -24 57.5t-79 21.5q-36 0 -76.5 -34t-40.5 -150v-25v-234h69q21 0 34 2t26 14t13 40q8 9 20 9q9 0 9 -4q-6 -38 -6 -78q0 -31 6 -75q0 -4 -9 -4q-12 0 -20 9
q0 34 -19.5 43.5t-47.5 10.5h-75v-423q0 -59 46 -59q3 0 5 -2.5t2 -5.5q0 -6 -7 -6h-46h-84h-45q-4 0 -6 2t-2 4q0 3 2 5.5t6 2.5q22 0 33.5 16.5t11.5 35.5v430h-72q0 1 -0.5 5t-0.5 12t5 12t10 4h58v203v24v7q0 129 56.5 183t146.5 54q45 0 82 -19.5t59 -59.5
q15 -28 15 -63z" />
    <glyph glyph-name="g" unicode="g" horiz-adv-x="454" 
d="M418 582q0 21 -8.5 38.5t-22.5 27.5q-16 12 -36 12t-35 -12.5t-15 -32.5q0 -19 10.5 -28t25.5 -9q8 0 11 1q11 2 18 -7t7 -23t-8 -24.5t-23 -7.5q-42 24 -97 24q-20 0 -47 -5q-23 -5 -31 -7q-63 -19 -106.5 -70.5t-43.5 -115.5q0 -43 22 -84q25 -46 72 -71
q-18 -9 -25 -17q-24 -24 -24 -50q0 -34 38.5 -62t88.5 -40q-49 -3 -101 -31t-86.5 -76.5t-34.5 -108.5q0 -67 45.5 -114.5t136.5 -55.5q11 -1 33 -1q88 0 156 38t105 96t37 117q0 64 -43 104q-31 28 -72.5 46t-103.5 38q-48 16 -75 27t-47 26q-11 8 -11 19q0 17 21 30
q29 -8 58 -8q33 0 67 9l13 5q69 25 106 79t37 110q0 18 -2 26q-7 36 -26 67q-9 14 -9 33t13 40q12 21 12 48zM96 383q0 43 19.5 76.5t61.5 46.5q19 6 36 6q49 0 83.5 -40t47.5 -94q7 -29 7 -58q0 -46 -20.5 -77.5t-55.5 -43.5q-15 -5 -32 -5q-16 0 -34 5q-30 9 -55.5 35.5
t-42.5 69.5q-15 36 -15 79zM363 -247q-26 -42 -69.5 -64t-94.5 -22q-19 0 -39 3q-62 11 -92.5 48t-30.5 93q0 55 29.5 96t74 64.5t90.5 28.5q37 -10 66.5 -21t60.5 -43t31 -84q0 -57 -26 -99z" />
    <glyph glyph-name="h" unicode="h" horiz-adv-x="572" 
d="M560 11q2 -2 2 -5q0 -2 -2 -4t-6 -2h-43h-90h-43q-4 0 -6 2t-2 4q0 3 2.5 5t5.5 2q35 0 43 36v237q0 90 -33.5 149t-108.5 59q-14 0 -21 -1q-22 -2 -45 -17.5t-39 -36t-17 -39.5v-316v5v-16v1v-15q6 -46 45 -46q4 0 6 -2t2 -5q0 -2 -2 -4t-6 -2h-45h-84h-45q-7 0 -7 6
q0 2 2 4.5t5 2.5q41 0 45 46v15v-1v16v-5v830q0 24 -15 47.5t-60 24.5q-4 0 -6 2.5t-2 4.5q0 6 8 6h16q8 0 30 1.5t42 4.5q22 3 40 10.5t24 13.5q5 4 9.5 3t3.5 -5q0 -3 -3 -33.5t-3 -89.5v-438q9 15 38.5 37.5t71.5 29.5q32 5 53 5q100 0 148 -69.5t43 -186.5v-233
q8 -36 43 -36q4 0 6 -2z" />
    <glyph glyph-name="i" unicode="i" horiz-adv-x="211" 
d="M40 611.5q-15 14.5 -15 35.5t15 36t35 15q21 0 36 -15t15 -36t-15 -35.5t-36 -14.5q-20 0 -35 14.5zM182 14q4 0 6 -2.5t2 -5.5q0 -2 -2 -4t-6 -2h-175q-4 0 -6 2t-2 4q0 3 2 5.5t6 2.5q27 0 36 17t10 42v339q0 3 0.5 24.5t-13.5 36.5t-43 15q-4 0 -6 2.5t-2 4.5t2 4t6 2
h16q5 0 20 2t32 4q22 3 40 10.5t25 13.5q4 4 8.5 3t4.5 -5q-7 -42 -7 -127v-329q2 -59 46 -59z" />
    <glyph glyph-name="j" unicode="j" horiz-adv-x="214" 
d="M51 680.5q15 14.5 36 14.5t35.5 -14.5t14.5 -35.5t-14.5 -36t-35.5 -15t-36 15t-15 36t15 35.5zM148 532q6 0 6 -6q-2 -8 -4 -42t-2 -85v-401h-1v-177q0 -87 -44 -143.5t-136 -52.5q-19 1 -46 9.5t-50 31t-23 60.5q0 16 10.5 29t26.5 13q4 0 12 -2q11 -3 18 -13t7 -21
q0 -9 -4 -16q-4 -6 -7 -8q-4 -4 -5 -7q-3 -6 4 -16.5t22.5 -18.5t37.5 -8q40 0 60 19t27 54t7 94v584q0 31 -9.5 53.5t-46.5 22.5q-4 0 -6 2.5t-2 5.5q0 2 2 4t6 2h17q5 0 20 1.5t32 3.5q22 4 39.5 11.5t24.5 13.5q5 3 7 3z" />
    <glyph glyph-name="k" unicode="k" horiz-adv-x="506" 
d="M524 11q2 -2 2 -5q0 -2 -2 -4t-6 -2h-111h-68q-4 0 -6 2t-2 4q0 3 2.5 5t5.5 2q36 3 36 27q0 12 -8 30l-121 272l-79 -78v-207q6 -43 45 -43q4 0 6 -2t2 -5q0 -2 -2 -4t-6 -2h-45h-84h-46q-4 0 -6 2t-2 4q0 3 2.5 5t5.5 2q44 0 46 56v853q-3 25 -19.5 44t-55.5 20
q-3 0 -5.5 2.5t-2.5 4.5q0 6 8 6h16q8 0 30 1.5t42 4.5q22 3 40 10.5t24 13.5q5 4 9.5 3t3.5 -5q0 -3 -2.5 -27t-3.5 -66v-624l171 166q7 8 7 18q0 11 -9.5 18t-29.5 7q-4 0 -6 2.5t-2 5.5q0 2 2 4t6 2h80h74q4 0 6 -2t2 -4q0 -8 -10 -8q-21 0 -36 -9.5t-38 -28.5l-81 -82
q79 -178 117.5 -259.5t45.5 -93.5q28 -34 52 -34q4 0 6 -2z" />
    <glyph glyph-name="l" unicode="l" horiz-adv-x="212" 
d="M208 11q2 -2 2 -5q0 -2 -2 -4t-6 -2h-45h-1h-82h-1h-45q-4 0 -6 2t-2 4q0 3 2.5 5t5.5 2q39 0 45 46v864q-3 25 -20 44t-56 20q-3 0 -5 2.5t-2 4.5q0 6 7 6h17q8 0 34 2t38 4q22 3 40 10.5t24 13.5q5 3 8 3q2 0 4 -1.5t1 -4.5q0 -3 -2 -26t-4 -67v-877q3 -20 12.5 -32
t32.5 -12q4 0 6 -2z" />
    <glyph glyph-name="m" unicode="m" horiz-adv-x="692" 
d="M47 468q-16 23 -59 24q-4 0 -6 2.5t-2 4.5q0 6 8 6h16q8 0 30 1.5t42 4.5q22 3 40 10.5t24 13.5q5 4 9.5 3t3.5 -5l-4 -52q11 20 40.5 38.5t71.5 18.5q40 0 73 -19.5t48 -61.5v2q8 19 24.5 36.5t33.5 25.5q34 17 70 17q54 0 92 -37t38 -115v-325q4 -44 45 -44q3 0 5 -2.5
t2 -4.5q0 -6 -7 -6h-45h-1h-83h-45q-4 0 -6 2t-2 4q0 3 2.5 5t5.5 2q39 0 45 46v347q0 53 -19 73t-38 21q-58 3 -82 -39.5t-24 -99.5v-302q6 -46 45 -46q4 0 6 -2t2 -5q0 -2 -2 -4t-6 -2h-45h-1h-82h-45q-4 0 -6 2t-2 4q0 3 2.5 5t5.5 2q39 0 45 46v347q0 53 -19.5 73
t-38.5 21q-57 3 -81 -39.5t-24 -99.5v-302q6 -46 45 -46q4 0 6 -2t2 -5q0 -2 -2 -4t-6 -2h-45h-1h-83h-45q-7 0 -7 6q0 2 2 4.5t5 2.5q41 0 45 46v355q0 27 -16 50z" />
    <glyph glyph-name="n" unicode="n" horiz-adv-x="467" 
d="M51 439q0 21 -11 34.5t-43 14.5q-4 0 -6 2.5t-2 4.5q0 6 8 6h16q5 0 19.5 2t30.5 4q22 3 40 10.5t25 13.5q3 3 7 3q2 0 4 -1.5t1 -4.5q0 -2 -1.5 -17.5t-2.5 -44.5q9 24 41.5 48.5t86.5 24.5q13 0 20 -1q51 -5 89 -43.5t38 -119.5v-286v-16q1 -26 10 -43t36 -17q4 0 6 -2
t2 -5q0 -2 -2 -4t-6 -2h-176q-4 0 -6 2t-2 4q0 3 2.5 5t5.5 2q27 0 36 17t10 43v333q0 53 -25 72.5t-48 21.5q-40 2 -67 -20t-39.5 -56t-12.5 -68l-1 -298q0 -18 11.5 -31.5t33.5 -13.5q4 0 6 -2t2 -5q0 -2 -2 -4t-6 -2h-45h-1h-83h-44q-8 0 -8 6q0 3 2.5 5t5.5 2
q40 0 44 46v14v7v334z" />
    <glyph glyph-name="o" unicode="o" horiz-adv-x="460" 
d="M329 502.5q50 -31.5 79.5 -90.5t29.5 -137q0 -30 -2 -45q-5 -55 -30 -106.5t-70 -86t-109 -37.5h-8h-7q-64 3 -109.5 37.5t-70 86t-30.5 106.5q-2 30 -2 43q0 79 29.5 138.5t79.5 91t110 30.5q60 1 110 -30.5zM350 280q0 91 -32 159.5t-99 68.5t-99 -68.5t-32 -159.5
q0 -21 1 -31q7 -106 41.5 -164t88.5 -58t88.5 58t41.5 164q1 10 1 31z" />
    <glyph glyph-name="p" unicode="p" horiz-adv-x="527" 
d="M48.5 462.5q-15.5 23.5 -60.5 24.5q-4 0 -6 2.5t-2 5.5q0 2 2 4t6 2h17q8 0 33.5 1.5t38.5 3.5q22 4 39.5 11.5t24.5 13.5q5 3 7 3q6 0 6 -6q0 -2 -1.5 -15t-2.5 -37q10 14 39 31t68 24q17 3 34 3q59 0 109.5 -33.5t80.5 -94.5t30 -138l-1 -22q-3 -57 -29.5 -114.5
t-77.5 -96t-123 -38.5q-10 0 -32 2q-37 5 -66 21t-34 29v-351q0 -59 46 -59q3 0 5 -2.5t2 -5.5q0 -6 -7 -6h-176q-4 0 -6 2t-2 4q0 3 2 5.5t6 2.5q27 0 36 17t10 42v713q0 28 -15.5 51.5zM171.5 70.5q19.5 -15.5 41 -22t31.5 -6.5q83 -6 128 58t45 167q0 100 -39 162.5
t-111 62.5q-12 0 -18 -1q-34 -4 -66.5 -29.5t-34.5 -53.5v-296q4 -26 23.5 -41.5z" />
    <glyph glyph-name="q" unicode="q" horiz-adv-x="497" 
d="M316.5 23.5q-30.5 -15.5 -67.5 -20.5q-24 -2 -34 -2q-61 0 -110 28t-77 83.5t-28 135.5q0 69 27 134t87 108t151 43q33 0 55.5 -11t33.5 -24l-2 29q0 6 6 6q2 0 7 -3q2 -3 14.5 -21t35.5 -31q22 -13 54 -13q11 0 11 -8q0 -1 -1.5 -4t-7.5 -3q-11 0 -20.5 -13t-9.5 -36
v-717q6 -45 45 -45q4 0 6 -2.5t2 -5.5q0 -2 -2 -4t-6 -2h-173q-8 0 -8 6q0 3 2 5.5t6 2.5q26 0 35 17.5t10 43.5v355q-11 -16 -41.5 -31.5zM357 436q-4 20 -26 39.5t-59 19.5q-62 0 -103 -32t-60.5 -83.5t-19.5 -110.5q0 -34 6 -64q30 -159 154 -159q40 0 73.5 24.5
t35.5 53.5v260q0 37 -1 52z" />
    <glyph glyph-name="r" unicode="r" horiz-adv-x="437" 
d="M409.5 373.5q-15.5 -16.5 -33.5 -16.5q-10 0 -22.5 7.5t-16.5 25.5q-2 13 8 29q1 2 4 8.5t3 12.5q0 25 -16.5 42t-44.5 17q-15 0 -35 -6q-94 -33 -100 -171v-247q1 -26 10 -43.5t35 -17.5q4 0 6 -2.5t2 -5.5q0 -6 -8 -6h-174q-4 0 -6 2t-2 4q0 3 2 5.5t6 2.5q44 0 46 61
v365q-1 22 -15.5 33t-60.5 12q-3 0 -5 2.5t-2 5.5q0 6 7 6h17q8 0 33 2t38 4q22 3 40 10.5t24 13.5q4 4 7 4q6 0 6 -6q0 -4 -1.5 -18.5t-3.5 -48.5q8 21 46.5 44t74.5 25q6 1 17 1q36 0 65.5 -15.5t47 -41.5t17.5 -55q0 -28 -15.5 -44.5z" />
    <glyph glyph-name="s" unicode="s" horiz-adv-x="411" 
d="M133 383q28 -21 88 -51q54 -26 87.5 -47t57 -54.5t23.5 -79.5q0 -44 -26 -80t-70 -56t-95 -20q-21 0 -48 5q-67 14 -103.5 54.5t-36.5 87.5q0 44 30 71q9 9 21.5 14t25.5 5q23 0 36 -16q6 -9 6 -18q0 -13 -11 -23.5t-25 -10.5q-5 0 -15 4q-4 2 -8 2q-7 0 -13 -6
q-9 -10 -9 -30q0 -32 26 -62t79 -40q17 -4 37 -4q53 0 86 31t33 76q0 29 -17 49.5t-42 35t-70 35.5q-51 23 -83 42.5t-54 49.5t-22 73q0 51 41 83t110 32q31 0 55.5 -7.5t41.5 -15t22 -9.5q11 -5 24 -9.5t23 -4.5q9 0 16 3q2 1 6 1q8 0 8 -7t-8 -12q-4 -2 -12 -7t-18 -19
q-2 -3 -20 -36q-12 -25 -17 -32q-7 -10 -16 -10q-7 0 -10.5 5.5t0.5 10.5q5 7 8.5 24.5t4.5 23.5q0 25 -16 40t-35.5 22t-31.5 7q-49 2 -70.5 -19t-21.5 -48q0 -32 28 -53z" />
    <glyph glyph-name="t" unicode="t" horiz-adv-x="301" 
d="M274.5 123q13.5 -15 14.5 -35q3 -42 -23.5 -65t-60.5 -23q-58 0 -87.5 22.5t-38 58t-8.5 89.5v114v206h-65q-7 0 -7 8q0 3 2.5 6t6.5 3q35 0 63.5 22t45 52.5t19.5 52.5q0 6 9 6q10 0 10 -6v-127h69h19q4 0 6.5 -3t2.5 -6t-2 -5.5t-6 -2.5h-89v-388q0 -38 9.5 -58
t40.5 -20q27 0 39 12.5t12 27.5q0 8 -3.5 13t-7.5 4q-7 -3 -13 -3q-10 0 -16.5 8.5t-6.5 19.5q0 13 8.5 22.5t25.5 9.5q18 0 31.5 -15z" />
    <glyph glyph-name="u" unicode="u" horiz-adv-x="471" 
d="M466 13q2 -2 2 -5q0 -2 -2 -4t-6 -2h-129v54q-17 -23 -43.5 -39.5t-74.5 -16.5q-8 0 -32 2q-53 7 -90 42.5t-37 115.5l-1 251q0 3 0.5 24.5t-13.5 36.5t-42 15q-4 0 -6 2.5t-2 4.5t2 4t6 2h16q5 0 20 2t32 4q22 3 40.5 10.5t25.5 13.5q4 4 8.5 3t4.5 -5q0 -3 -3 -26.5
t-4 -68.5v-304q0 -37 14 -57.5t31 -28t28 -7.5q40 -2 67 20t40 55.5t13 67.5l-1 232q0 21 -2 35.5t-14.5 27.5t-39.5 13q-3 0 -5.5 2.5t-2.5 4.5t2 4t6 2h16q5 0 20 2t32 4q22 3 40.5 10.5t25.5 13.5q4 4 8.5 3t4.5 -5t-2.5 -22t-3.5 -46v-387q0 -58 45 -58q4 0 6 -2z" />
    <glyph glyph-name="v" unicode="v" horiz-adv-x="441" 
d="M430 534q4 0 6.5 -2.5t1.5 -8.5q-1 -4 -33.5 -85t-163.5 -423q-4 -15 -12 -15q-6 0 -10 9l-178 446q-6 12 -20 20.5t-32 9.5q-9 0 -9 8q0 3 2 5.5t6 2.5q6 0 26 0.5t42.5 6.5t33.5 21q5 5 10 5q7 0 8 -11q1 -15 5 -28.5t15 -41.5l117 -308l106 283q4 10 4 22q0 37 -47 37
q-10 0 -10 8q0 7 9 7q25 0 61.5 6t55.5 24q2 2 6 2z" />
    <glyph glyph-name="w" unicode="w" horiz-adv-x="643" 
d="M635 534q4 0 6.5 -2.5t1.5 -8.5q-2 -9 -8.5 -28t-13.5 -38l-165 -451q-3 -5 -9 -5q-7 0 -10 5l-90 250v0q4 8 -80 -166l-40 -84q-2 -5 -9 -5q-6 0 -9 5q-20 49 -65.5 168t-87.5 229l-20 51q-7 13 -19 22.5t-30 10.5q-9 0 -9 7q0 3 2 5t6 2h24t40.5 6t33.5 21q3 5 10 5
t7 -11q0 -13 3 -25.5t8 -24.5l129 -338l89 176q-19 54 -33 92.5t-19 51.5q-7 13 -19 22.5t-30 10.5q-9 0 -9 7q0 3 2.5 5t5.5 2h3h1h3q38 1 59 10t29 17q5 5 10 5q7 0 7 -11q0 -17 5.5 -32t6.5 -18l108 -325l105 294q0 1 0.5 3t0.5 5q0 14 -10 26t-36 12q-10 0 -10 9
q0 7 11 7q24 0 57 6t51 23q2 2 6 2z" />
    <glyph glyph-name="x" unicode="x" horiz-adv-x="447" 
d="M462 11q2 -2 2 -5q0 -6 -7 -6h-156q-4 0 -6 2t-2 4q0 3 2.5 5t5.5 2q17 0 17 11q0 7 -10 25l-92 170l-85 -147q-16 -25 -16 -41q0 -18 22 -18q4 0 6 -2t2 -5q0 -2 -2 -4t-6 -2h-129q-8 0 -8 6q0 3 2.5 5t5.5 2q18 0 35.5 15.5t28.5 32t14 21.5q9 16 38 66t68 116l-21 40
q-53 98 -60 110q-17 31 -23 40q-19 27 -47 29q-9 0 -9 8q0 3 2 5.5t6 2.5q5 0 24 0.5t40.5 6.5t33.5 21q3 5 11 5q9 0 9 -11q-1 -10 6 -33q5 -16 73 -146l57 98q8 16 8 25q0 20 -29 20q-10 0 -10 8q0 7 9 7q24 0 58.5 6t53.5 24q2 2 6 2t6.5 -2.5t1.5 -8.5q-1 -2 -29.5 -47
t-39.5 -61l-68 -116q127 -242 136 -253q21 -31 59 -31q4 0 6 -2z" />
    <glyph glyph-name="y" unicode="y" horiz-adv-x="465" 
d="M414 -160q0 -90 -36.5 -138t-80.5 -62.5t-80 -14.5q-49 0 -86 23t-56 59.5t-19 73.5q0 34 16.5 61t47.5 38q11 4 23 4q22 0 36 -14t14 -34q0 -13 -6 -23q-6 -12 -17 -17t-26 -8t-18 -7q-11 -12 -11 -32q0 -21 13.5 -42t38 -34.5t56.5 -13.5q44 0 67.5 22t31.5 63.5
t8 108.5v210q-17 -23 -43.5 -39.5t-74.5 -16.5q-8 0 -32 2q-53 7 -90 42.5t-37 115.5v242q0 3 0.5 24.5t-13.5 36.5t-42 15q-4 0 -6 2.5t-2 4.5t2 4t6 2h16q5 0 20 2t32 4q22 3 40.5 10.5t25.5 13.5q4 4 8.5 3t4.5 -5q-8 -48 -8 -127v-263q0 -37 14 -57.5t31 -28t28 -7.5
q40 -2 67 20t40 55.5t13 67.5v223q0 4 1 25t-12 36t-40 15q-3 0 -5.5 2.5t-2.5 4.5t2 4t6 2h16l47 6q22 3 40.5 10.5t25.5 13.5q4 4 8.5 3t4.5 -5q-8 -48 -8 -127z" />
    <glyph glyph-name="z" unicode="z" horiz-adv-x="510" 
d="M495 500q3 -3 3 -7t-3 -7t-9 -3q-13 0 -30 -15.5t-38 -41.5l-280 -391h220q48 0 62 51.5t14 85.5q0 9 6 14t14 5q16 0 16 -14l-2 -9q-4 -24 -4 -49q0 -64 23 -110q4 -5 4 -10q0 -6 -6.5 -8t-10.5 2q-4 3 -14 5t-18 2h-416q-6 0 -6 4q0 3 1.5 5t2.5 3l324 455h-170
q-30 0 -40.5 -4.5t-13.5 -18.5q-1 -4 1 -13.5t3 -15.5q9 -36 9 -57q0 -31 -13 -47.5t-30 -16.5q-12 0 -21 9t-9 23q0 7 2.5 11t8.5 10q1 1 6 7t7 16q2 12 2 18q0 50 -58 100l-7 6l-2 5q0 4 8 4h455q6 0 9 -3z" />
    <glyph glyph-name="braceleft" unicode="{" horiz-adv-x="464" 
d="M390 104q16 0 27.5 -11t11.5 -30q0 -9 -3 -20q-11 -36 -40 -54.5t-67 -18.5q-26 0 -52 9l-6 2l-7 3q-68 28 -108.5 84t-40.5 120q0 42 14 98q13 60 13 86q0 44 -36 79.5t-96 43.5v19q60 8 96 43.5t36 79.5q0 26 -13 86q-14 56 -14 97q0 71 33.5 120.5t81.5 74.5t89 25
q10 0 14 -1q36 0 64 -19t39 -54q3 -12 3 -21q0 -19 -11 -29.5t-28 -10.5q-3 0 -13 2q-11 3 -18.5 12t-7.5 19q0 11 10 21q14 14 14 22q0 6 -5 11q-19 21 -53 21q-19 0 -45 -8q-39 -20 -59 -50t-20 -66q0 -37 13 -90q13 -55 13 -96q0 -61 -44 -115t-125 -84q81 -29 125 -83
t44 -115q0 -41 -13 -96q-13 -53 -13 -90q0 -36 20 -66t59 -50q26 -8 45 -8q33 0 53 20q5 7 5 11q0 9 -14 23q-10 9 -10 20t7.5 20t18.5 12q8 2 13 2z" />
    <glyph glyph-name="bar" unicode="|" horiz-adv-x="69" 
d="M34 -215v1215h-34v-1215h34z" />
    <glyph glyph-name="braceright" unicode="}" horiz-adv-x="464" 
d="M70.5 90q7.5 -9 7.5 -20t-10 -20q-14 -14 -14 -23q0 -4 5 -11q20 -20 53 -20q19 0 45 8q39 20 59 50t20 66q0 37 -13 90q-13 55 -13 96q0 61 44 115t125 83q-81 30 -125 84t-44 115q0 41 13 96q13 53 13 90q0 36 -20 66t-59 50q-26 8 -45 8q-33 0 -53 -21q-5 -5 -5 -11
q0 -8 14 -22q10 -10 10 -21q0 -10 -7.5 -19t-18.5 -12q-8 -2 -13 -2q-17 0 -28 10.5t-11 29.5q0 9 3 21q11 35 39 54t64 19q4 1 14 1q41 0 89 -25t81.5 -74.5t33.5 -120.5q0 -41 -14 -97q-13 -60 -13 -86q0 -44 36 -79.5t96 -43.5v-19q-60 -8 -96 -43.5t-36 -79.5
q0 -26 13 -86q14 -56 14 -98q0 -64 -40.5 -120t-108.5 -84l-7 -3l-6 -2q-25 -9 -52 -9q-38 0 -67 18.5t-40 54.5q-3 11 -3 20q0 19 11.5 30t27.5 11q5 0 13 -2q11 -3 18.5 -12z" />
    <glyph glyph-name="asciitilde" unicode="~" horiz-adv-x="585" 
d="M536 374q-7 0 -10 -14q-9 -36 -33 -55.5t-57 -19.5q-21 0 -34 4q-25 7 -78 29q-102 43 -145 55q-22 6 -44 6q-30 0 -56 -16q-52 -31 -59 -107v-3q0 -11 10 -15q2 -1 5 -1q7 0 10 12q21 74 88 74q35 0 111 -32q109 -44 137 -52q27 -8 49 -8q48 0 81.5 33.5t37.5 90.5v3
q0 11 -9 15q-1 1 -4 1z" />
    <glyph glyph-name="exclamdown" unicode="&#xa1;" horiz-adv-x="357" 
d="M191.5 498q20.5 21 20.5 51q0 29 -21 50t-50 21t-50 -21t-21 -50t21 -50.5t50 -21.5q30 0 50.5 21zM153 415h-27l-47 -626q-4 -50 -4 -66q0 -46 16.5 -72t48.5 -26q64 0 64 107q0 25 -3 57z" />
    <glyph glyph-name="cent" unicode="&#xa2;" horiz-adv-x="461" 
d="M411.5 176q13.5 -18 13.5 -43q0 -11 -3 -20q-16 -66 -67 -89.5t-97 -23.5q-81 0 -143 39l-61 -126q-2 -5 -8.5 -9.5t-12.5 -4.5h-10q-6 0 -8.5 4.5t-0.5 9.5l71 149q-36 33 -57 77t-26 91q-2 15 -2 43q0 84 33 142.5t88 88t121 29.5q30 0 53 -6l64 143q2 5 8.5 9t12.5 4
h9q7 0 9.5 -4t-0.5 -9l-69 -155q9 -4 22 -10.5t22.5 -9.5t18.5 -3t16 3q2 1 6 1q8 0 8 -7q0 -6 -8 -11q-5 -3 -12.5 -8t-16.5 -18q-6 -8 -19 -35q-3 -6 -8.5 -18t-8.5 -15q-7 -10 -15 -10q-7 0 -10.5 6t0.5 11q5 6 8.5 23.5t4.5 23.5q1 17 -5 28.5t-16 21.5l-178 -397
q27 -39 59.5 -51.5t46 -13.5t14.5 -1q38 -2 66 11t42.5 33.5t14.5 38.5q0 9 -3 15q-2 3 -7 5t-8 2q-12 -1 -20.5 8.5t-7.5 21.5q0 17 11.5 25.5t26.5 8.5q25 0 38.5 -18zM116 131l169 374q-19 6 -32 4q-80 -5 -119 -74t-39 -174q0 -78 21 -130z" />
    <glyph glyph-name="sterling" unicode="&#xa3;" horiz-adv-x="649" 
d="M610 181q0 -39 -16.5 -80t-55.5 -69.5t-102 -28.5q-51 0 -109.5 27.5t-115.5 76.5q-53 -104 -123 -104q-35 0 -61.5 24t-26.5 61q0 56 31.5 87t75.5 31q36 0 68 -21q2 23 2 50q0 69 -14 217h-127v62h127q-8 87 -8 130q0 136 30.5 214t90.5 116q57 34 122 34
q55 0 89.5 -23t49.5 -56t15 -63q0 -44 -19 -65t-49 -21q-17 0 -30 12.5t-13 33.5q0 25 20 54q6 11 6 22q0 26 -24.5 48.5t-60.5 22.5q-38 0 -64 -22t-41 -80.5t-15 -162.5q0 -20 6 -96l2 -27q5 -48 5 -46q0 -13 2 -25h169v-62h-169v-46q0 -60 -11 -118.5t-35 -128.5
q60 -32 101 -50.5t52 -20.5q35 -8 67 -8q29 0 57 14t46 38t20 50q3 13 -4 25.5t-21 12.5q-4 0 -12 -2q-3 -2 -9 -2q-8 0 -15.5 5.5t-9.5 13.5q-2 4 -2 13q0 10 6 18t15 12q9 3 18 3q27 0 45.5 -23t21.5 -49q3 -12 3 -28zM135 62.5q20 21.5 32 68.5q-29 20 -56 20
q-30 0 -51.5 -16.5t-21.5 -41.5q0 -22 17 -37t36 -15q24 0 44 21.5z" />
    <glyph glyph-name="currency" unicode="&#xa4;" horiz-adv-x="507" 
d="M376 552q-5 0 -9 3q-28 21 -62 32t-67 11q-34 0 -70 -11.5t-63 -31.5q-4 -3 -9 -3q-6 0 -10 4l-53 52q-4 4 -11 4q-6 0 -11 -5l-6 -6q-5 -5 -5 -11t5 -11l52 -51q4 -4 4 -10q0 -4 -3 -9q-43 -59 -43 -131q0 -76 43 -131q3 -4 3 -9q0 -6 -4 -10l-52 -53q-5 -5 -5 -11
t5 -11l6 -6q5 -4 11 -4t10 4l53 51q5 5 10 5q4 0 10 -4q24 -18 62 -30t76 -12q63 0 124 43q5 3 9 3q6 0 10 -4l53 -52q4 -4 10 -4q7 0 11 4l7 6q5 5 5 11t-5 11l-52 53q-4 4 -4 10q0 5 3 9q43 59 43 132q0 69 -43 130q-3 5 -3 9q0 6 4 10l52 51q5 5 5 11t-5 11l-7 7
q-5 5 -11 5q-5 0 -10 -5l-53 -52q-4 -4 -10 -4zM315 515q37 -20 59 -58.5t22 -79.5q0 -43 -22 -79.5t-58.5 -58t-79.5 -21.5t-79.5 21.5t-58 57.5t-21.5 79t21.5 80t58 59t80.5 22q39 0 78 -22z" />
    <glyph glyph-name="yen" unicode="&#xa5;" horiz-adv-x="666" 
d="M625 994q0 -2 -2 -4.5t-5 -2.5q-34 0 -50 -10.5t-30 -34.5l-183 -432v-20h148v-48h-148v-78h148v-48h-148v-227q0 -27 15.5 -51t60.5 -25q4 0 6 -2t2 -5q0 -2 -2 -4t-6 -2h-76h-92h-76q-4 0 -6 2t-2 4q0 3 2.5 5t5.5 2q45 1 60.5 25t15.5 51v227h-141v48h141v78h-141v48
h141v17l-180 423q-5 8 -13.5 24.5t-22 24.5t-39.5 8q-3 0 -5.5 2.5t-2.5 4.5t2 4t6 2h212q7 0 7 -6q0 -2 -2 -4.5t-5 -2.5q-47 0 -47 -34q0 -16 10 -38l-10 22l161 -359l148 352q4 16 4 22q0 35 -49 35q-3 0 -5.5 2.5t-2.5 4.5t2 4t6 2h181q7 0 7 -6z" />
    <glyph glyph-name="brokenbar" unicode="&#xa6;" horiz-adv-x="69" 
d="M34 501v499h-34v-499h34zM34 -215v499h-34v-499h34z" />
    <glyph glyph-name="section" unicode="&#xa7;" horiz-adv-x="592" 
d="M52.5 465.5q-42.5 -68.5 -42.5 -141.5q0 -69 39 -132q53 -82 196 -189q94 -70 134 -130q24 -40 24 -85q0 -30 -19.5 -60t-51 -48.5t-64.5 -18.5q-42 0 -73 23q-19 14 -19 37q0 9 5 39q7 21 7 44q0 30 -16.5 49t-41.5 19q-24 0 -42 -20t-18 -48q0 -45 25.5 -85t70 -64
t97.5 -24q60 0 110 29t79 79.5t29 111.5q0 49 -21 92t-74 103q85 50 127.5 119t42.5 142q0 71 -41 132q-55 88 -210 199q-83 62 -116 113q-20 32 -20 81q0 37 18 67.5t48.5 48.5t66.5 18q38 0 60.5 -20t22.5 -53q0 -15 -3 -32q-7 -35 -7 -41q0 -24 17.5 -41.5t42.5 -17.5
q26 0 43.5 19.5t17.5 49.5q0 44 -25.5 83t-70 62.5t-98.5 23.5q-60 0 -110 -29t-78.5 -79t-28.5 -109q0 -48 22 -95t72 -103q-84 -50 -126.5 -118.5zM306 476q107 -84 138 -135q34 -55 34 -105q0 -97 -117 -169q-40 37 -93 78q-109 80 -151 146q-29 47 -29 99q0 101 116 170
q39 -36 102 -84z" />
    <glyph glyph-name="copyright" unicode="&#xa9;" horiz-adv-x="870" 
d="M580 83q76 32 133 89q59 59 90 133q33 78 33 163t-33 162q-32 77 -90 133q-56 56 -133 90q-78 32 -162 32t-163 -32q-76 -34 -132 -90q-58 -56 -90 -133q-33 -76 -33 -162q0 -85 33 -163q31 -74 90 -133q57 -57 132 -89q78 -33 163 -33q86 0 162 33zM561 807
q67 -27 117 -79q53 -53 79 -117q29 -65 29 -143q0 -77 -29 -144q-26 -64 -79 -117q-48 -49 -117 -79q-69 -29 -143 -29t-144 29q-68 30 -117 79q-51 53 -79 117q-29 70 -29 144t29 143q28 64 79 117q52 52 117 79q70 29 144 29t143 -29zM598.5 377q13.5 -18 13.5 -43
q0 -11 -3 -20q-16 -66 -67 -89.5t-97 -23.5q-79 0 -135 33.5t-86 86t-35 110.5q-2 15 -2 43q0 84 33 142.5t88 88t121 29.5q30 0 51.5 -6.5t52.5 -19.5q12 -6 24 -10.5t22 -4.5q7 0 16 3q2 1 6 1q8 0 8 -7q0 -6 -8 -11q-5 -3 -12.5 -8t-16.5 -18q-6 -8 -19 -35
q-3 -6 -8.5 -18t-8.5 -15q-7 -10 -15 -10q-7 0 -10.5 6t0.5 11q5 6 8.5 23.5t4.5 23.5q1 17 -5 28.5t-16 21.5q-14 13 -32 17.5t-31 3.5q-80 -5 -119 -74t-39 -174q0 -108 36 -160t81.5 -67t45.5 -9q38 -2 66 11t42.5 33.5t14.5 38.5q0 9 -3 15q-2 3 -7 5t-8 2
q-12 -1 -20.5 8.5t-7.5 21.5q0 17 11.5 25.5t26.5 8.5q25 0 38.5 -18z" />
    <glyph glyph-name="guillemotleft" unicode="&#xab;" horiz-adv-x="452" 
d="M245 482q2 2 2 6q0 7 -9 7h-1q-13 0 -25 -12l-207 -231q-5 -5 -5 -12t5 -12l207 -222q12 -12 25 -12h1q6 0 8.5 4t-1.5 9l-155 220q-4 8 -4 13q0 7 4 13zM407 482l2 5q0 8 -10 8h-1q-6 0 -13 -3.5t-11 -8.5l-181 -231q-4 -5 -4 -13q0 -7 4 -11l189 -222q10 -12 25 -12h1
q6 0 8 4t-1 9l-136 220q-3 6 -3 13q0 9 3 13z" />
    <glyph glyph-name="logicalnot" unicode="&#xac;" horiz-adv-x="585" 
d="M0 469v-81h464v-96l86 1v176h-550z" />
    <glyph glyph-name="registered" unicode="&#xae;" horiz-adv-x="883" 
d="M590 93q76 32 133 89q59 59 90 133q33 82 33 163q0 82 -33 162q-32 77 -90 133q-56 56 -133 90q-78 32 -162 32t-163 -32q-74 -33 -133 -90q-57 -57 -89 -133q-33 -77 -33 -162t33 -163q31 -73 89 -133q60 -58 133 -89q78 -33 163 -33q86 0 162 33zM571 817
q64 -26 117 -79t79 -117q29 -69 29 -143t-29 -144q-26 -64 -79 -117q-50 -50 -117 -79q-69 -29 -143 -29t-144 29q-68 30 -117 79q-50 50 -79 117q-29 70 -29 144t29 143q29 67 79 117q52 52 117 79q70 29 144 29t143 -29zM624.5 228.5q0.5 -3.5 -3.5 -3.5h-107h-5
q-4 0 -4 3.5t4 3.5h3q16 0 16 10q0 6 -4 11l-19 26q-28 41 -44.5 75t-33.5 81l-9 22q-3 8 -11 13q-24 0 -50 7v-205q0 -14 8 -26.5t32 -13.5q4 0 4 -3.5t-4 -3.5h-133q-4 0 -4 3.5t4 3.5q24 1 32 13.5t8 26.5v415q0 14 -8.5 27t-31.5 13q-4 0 -4 3.5t4 3.5h93h3q30 14 70 14
q38 0 71.5 -17t54 -49t20.5 -74q0 -18 -2 -28q-3 -16 -16.5 -39.5t-41.5 -44t-71 -25.5l8 -3q10 -5 19 -7.5t22 -4.5q0 -2 1.5 -30t19 -74.5t47.5 -81.5l13 -13q10 -10 19 -16q15 -10 27 -9q3 0 3.5 -3.5zM357 493q19 -5 42 -5q55 0 83.5 35.5t28.5 85.5q0 44 -22 78.5
t-59 39.5q-9 1 -25 1q-27 -1 -37.5 -16.5t-10.5 -33.5v-185z" />
    <glyph glyph-name="degree" unicode="&#xb0;" horiz-adv-x="356" 
d="M72 977.5q-38 -22.5 -60 -60.5t-22 -83t22.5 -83t60.5 -60t82 -22q45 0 83 22t60.5 60t22.5 83t-22 83.5t-60 60.5t-84 22q-45 0 -83 -22.5zM240 920q35 -35 35 -85q0 -49 -35 -84.5t-85 -35.5q-49 0 -84 35t-35 85t35 85t84 35q50 0 85 -35z" />
    <glyph glyph-name="plusminus" unicode="&#xb1;" horiz-adv-x="863" 
d="M446 171h382v-62h-827l-1 63h383v285h-382l-1 63h383v381h63v-382h382v-62h-383v-4h1v-282z" />
    <glyph glyph-name="paragraph" unicode="&#xb6;" horiz-adv-x="628" 
d="M590 1000h-310q-94 0 -158 -32q-60 -32 -91 -83.5t-31 -119.5q0 -69 30 -123q32 -58 91.5 -84t177.5 -31v-527h44v964h117v-964h47v964h83v36z" />
    <glyph glyph-name="periodcentered" unicode="&#xb7;" horiz-adv-x="178" 
d="M21 527q-21 -21 -21 -50q0 -30 21 -51t51 -21q29 0 50 21t21 51q0 29 -20.5 50t-50.5 21t-51 -21z" />
    <glyph glyph-name="guillemotright" unicode="&#xbb;" horiz-adv-x="452" 
d="M141 240q0 -7 -3 -13l-136 -220q-2 -4 -2 -6q0 -7 9 -7h1q15 0 25 12l189 222q4 4 4 11q0 8 -4 13l-181 231q-4 5 -11 8.5t-13 3.5h-1q-6 0 -8.5 -4t0.5 -9l128 -229q3 -4 3 -13zM331 240q0 -8 -4 -13l-155 -220q-2 -2 -2 -6q0 -7 9 -7h1q13 0 25 12l207 222q5 5 5 12
t-5 12l-207 231q-12 12 -25 12h-1q-6 0 -8.5 -4t1.5 -9l155 -229q4 -4 4 -13z" />
    <glyph glyph-name="questiondown" unicode="&#xbf;" horiz-adv-x="753" 
d="M466 497.5q21 21.5 22 50.5q0 30 -21.5 50.5t-51.5 20.5q-29 0 -49 -21t-20 -51q0 -29 20.5 -49.5t49.5 -21.5q29 0 50 21.5zM411 359q0 -57 -22.5 -96.5t-66.5 -85.5q-11 -12 -67 -68q-49 -47 -75.5 -78.5t-43 -71.5t-16.5 -93q0 -59 32.5 -115t93.5 -91t140 -35
q67 0 125 31t92.5 85t34.5 119q0 10 -2 30q-6 48 -33.5 69.5t-59.5 21.5q-13 0 -22 -3q-41 -15 -41 -51q0 -17 9.5 -32t24.5 -23q19 -10 29 -27t10 -38q0 -33 -21.5 -66.5t-60 -55.5t-86.5 -22q-52 0 -93 27.5t-63 73.5t-22 100q0 46 15 83t38 66t63 72q55 57 82 96
q24 33 38.5 74t14.5 81q0 43 -19 81l-34 -1q6 -31 6 -57z" />
    <glyph glyph-name="multiply" unicode="&#xd7;" horiz-adv-x="665" 
d="M315 418l272 -270l43 44l-272 271l271 271l-43 43l-270 -270l-270 270l-44 -44l269 -270l-271 -271l44 -43z" />
    <glyph glyph-name="divide" unicode="&#xf7;" horiz-adv-x="694" 
d="M280 727.5q-17 -16.5 -17 -39.5q0 -24 17 -40.5t40 -16.5t39.5 16.5t16.5 40.5q0 23 -16.5 39.5t-39.5 16.5t-40 -16.5zM0 513v-61h639v61h-639zM280 318.5q-17 -16.5 -17 -39.5q0 -24 17 -40.5t40 -16.5t39.5 16.5t16.5 40.5q0 23 -16.5 39.5t-39.5 16.5t-40 -16.5z" />
    <glyph glyph-name="endash" unicode="&#x2013;" horiz-adv-x="538" 
d="M0 322v-24h503v24h-503z" />
    <glyph glyph-name="emdash" unicode="&#x2014;" horiz-adv-x="1005" 
d="M0 322v-24h970v24h-970z" />
    <glyph glyph-name="quoteleft" unicode="&#x2018;" horiz-adv-x="186" 
d="M65.5 963q-26.5 -33 -46 -75.5t-19.5 -78.5q0 -48 23.5 -76.5t60.5 -28.5q29 0 48 18t19 43q0 22 -12 37.5t-34 15.5q-14 0 -24 14.5t-10 37.5q0 27 15.5 56t49.5 56q7 7 7 14q0 6 -4.5 10.5t-11.5 4.5q-10 0 -18 -7q-17 -8 -43.5 -41z" />
    <glyph glyph-name="quoteright" unicode="&#x2019;" horiz-adv-x="186" 
d="M85.5 741q26.5 33 46 75.5t19.5 78.5q0 48 -23.5 76.5t-60.5 28.5q-29 0 -48 -18t-19 -43q0 -22 12 -37.5t34 -15.5q14 0 24 -14.5t10 -37.5q0 -27 -15.5 -56t-49.5 -56q-7 -7 -7 -14q0 -6 4.5 -10.5t11.5 -4.5q10 0 18 7q17 8 43.5 41z" />
    <glyph glyph-name="quotesinglbase" unicode="&#x201a;" horiz-adv-x="186" 
d="M30 -94q35 0 62 28.5t27 71.5q0 40 -16.5 64t-46.5 24q-24 0 -39.5 -14.5t-15.5 -35.5q0 -20 10 -33t29 -13q7 0 15 4t14 4q17 0 17 -23q0 -22 -20 -37.5t-45 -15.5q-15 0 -28 7q-6 -1 -6 -8q0 -4 1.5 -7.5t4.5 -5.5q16 -10 37 -10z" />
    <glyph glyph-name="quotedblleft" unicode="&#x201c;" horiz-adv-x="383" 
d="M97 1000q-39 0 -68 -32.5t-29 -79.5q0 -43 24.5 -71t60.5 -28q29 0 47.5 18t18.5 43q0 22 -12 37.5t-34 15.5q-8 0 -18 -4t-16 -4q-20 0 -20 24q0 25 16 40.5t39 15.5q16 0 30 -7q7 1 7 8q0 11 -7 14q-19 10 -39 10zM284 1000q-39 0 -68 -32.5t-29 -79.5q0 -43 24.5 -71
t60.5 -28q29 0 47.5 18t18.5 43q0 22 -12 37.5t-34 15.5q-8 0 -18 -4t-16 -4q-20 0 -20 24q0 25 16 40.5t39 15.5q16 0 30 -7q7 1 7 8q0 11 -7 14q-19 10 -39 10z" />
    <glyph glyph-name="quotedblright" unicode="&#x201d;" horiz-adv-x="413" 
d="M94 789q39 0 68 32.5t29 79.5q0 43 -24.5 71t-60.5 28q-29 0 -47.5 -18t-18.5 -43q0 -22 12 -37.5t34 -15.5q8 0 18 4t16 4q20 0 20 -24t-15.5 -40t-39.5 -16q-16 0 -30 7q-7 -1 -7 -8q0 -10 7 -14q19 -10 39 -10zM281 789q39 0 68 32.5t29 79.5q0 43 -24.5 71t-60.5 28
q-29 0 -47.5 -18t-18.5 -43q0 -22 12 -37.5t34 -15.5q8 0 18 4t16 4q20 0 20 -24t-15.5 -40t-39.5 -16q-16 0 -30 7q-7 -1 -7 -8q0 -10 7 -14q19 -10 39 -10z" />
    <glyph glyph-name="quotedblbase" unicode="&#x201e;" horiz-adv-x="276" 
d="M30 -94q35 0 62 28.5t27 71.5q0 40 -16.5 64t-46.5 24q-24 0 -39.5 -14.5t-15.5 -35.5q0 -20 10 -33t29 -13q7 0 15 4t14 4q17 0 17 -23q0 -22 -20 -37.5t-45 -15.5q-15 0 -28 7q-6 -1 -6 -8q0 -4 1.5 -7.5t4.5 -5.5q16 -10 37 -10zM190 -94q35 0 62 28.5t27 71.5
q0 40 -16.5 64t-46.5 24q-24 0 -39.5 -14.5t-15.5 -35.5q0 -20 10 -33t29 -13q7 0 15 4t14 4q17 0 17 -23q0 -22 -20 -37.5t-45 -15.5q-15 0 -28 7q-6 -1 -6 -8q0 -4 1.5 -7.5t4.5 -5.5q16 -10 37 -10z" />
    <glyph glyph-name="dagger" unicode="&#x2020;" horiz-adv-x="509" 
d="M230 -84l-1 35q-1 42 -4.5 148t-6.5 168.5t-7 92.5q-8 91 -34 194q-1 3 -1 8q0 10 9 19q19 19 29.5 43t14.5 61v4q0 20 -20 17q-12 -1 -23 -5t-31 -13q-67 -27 -95 -27q-25 0 -42.5 16.5t-17.5 39.5q0 24 17.5 39.5t44.5 15.5q12 0 26 -3q12 -2 66 -24q25 -10 55 -15h4
q19 0 16 20q-6 31 -21 68q-22 52 -26 73q-5 15 -5 35q0 30 19 52t44 22q27 0 45.5 -21t18.5 -53q0 -39 -30 -113q-9 -21 -14.5 -36t-6.5 -27v-4q0 -8 5.5 -12.5t15.5 -3.5q28 4 54 15l41 17q9 4 14 5.5t6 2.5q14 4 27 4q25 0 42 -17t17 -40q0 -24 -16.5 -40t-41.5 -16
q-24 0 -89 26q-22 10 -53 17l-6 1q-8 0 -12 -6t-3 -15q4 -36 14 -59t30 -44q12 -12 8 -27q-27 -104 -36 -202q-16 -146 -18 -436q0 -20 -10 -20t-12 20z" />
    <glyph glyph-name="daggerdbl" unicode="&#x2021;" horiz-adv-x="510" 
d="M458 600q17 -17 17 -40q0 -24 -16.5 -40t-41.5 -16q-24 0 -89 26q-23 10 -52 17l6 -25q11 -44 16 -57q1 -3 6.5 -15t1.5 -21q-12 -25 -21.5 -71t-14.5 -102q-9 -81 -13 -153t-5 -187q0 -20 -10 -20t-12 20q-4 144 -8.5 219.5t-10.5 128.5q-10 113 -34 165q-2 4 -2 8
q0 10 10 30q8 18 16 58l6 24q-12 -1 -22.5 -5t-29.5 -13q-67 -27 -95 -27q-25 0 -42.5 16.5t-17.5 39.5q0 24 17.5 39.5t44.5 15.5q12 0 26 -3q12 -2 66 -24q25 -10 55 -15h3q10 51 17 112v4q0 20 -20 17q-12 -1 -23 -5t-31 -13q-67 -27 -95 -27q-25 0 -42.5 16.5
t-17.5 39.5q0 24 17.5 39.5t44.5 15.5q12 0 26 -3q12 -2 66 -24q25 -10 55 -15h4q19 0 16 20q-6 31 -21 68q-22 52 -26 73q-5 15 -5 35q0 30 19 52t44 22q27 0 45.5 -21t18.5 -53q0 -39 -30 -113q-9 -21 -14.5 -36t-6.5 -27v-4q0 -8 5.5 -12.5t15.5 -3.5q28 4 54 15l41 17
q9 4 14 5.5t6 2.5q14 4 27 4q25 0 42 -17t17 -40q0 -24 -16.5 -40t-41.5 -16q-24 0 -89 26q-22 10 -53 17l-6 1q-8 0 -12 -6t-3 -15q8 -72 16 -111h4q28 4 54 15l41 17q9 4 14 5.5t6 2.5q14 4 27 4q25 0 42 -17z" />
    <glyph glyph-name="bullet" unicode="&#x2022;" horiz-adv-x="312" 
d="M68.5 599.5q-31.5 -18.5 -50 -50.5t-18.5 -70t18.5 -70t50.5 -50.5t69 -18.5q38 0 70 18.5t50.5 50.5t18.5 70t-18.5 70t-50.5 50.5t-70 18.5t-69.5 -18.5z" />
    <glyph glyph-name="ellipsis" unicode="&#x2026;" horiz-adv-x="1044" 
d="M131 121.5q-21 -21.5 -21 -50.5t21 -50t50 -21t50 21t21 50q0 30 -20.5 51t-50.5 21q-29 0 -50 -21.5zM439 121.5q-21 -21.5 -21 -50.5t21 -50t50 -21t50 21t21 50q0 30 -20.5 51t-50.5 21q-29 0 -50 -21.5zM748 121.5q-21 -21.5 -21 -50.5t21 -50t50 -21t50 21t21 50
q0 30 -20.5 51t-50.5 21q-29 0 -50 -21.5z" />
    <glyph glyph-name="perthousand" unicode="&#x2030;" horiz-adv-x="1022" 
d="M574 1000l-453 -1000h58l454 1000h-59zM304.5 901.5q34.5 -49.5 34.5 -128.5q0 -77 -37 -128t-96 -51q-61 0 -98.5 50t-37.5 129q0 76 36 127t100 51t98.5 -49.5zM261 651q15 42 15 123t-13.5 122t-56.5 41t-57.5 -41.5t-14.5 -121.5t16 -122.5t56 -42.5t55 42z
M649.5 357.5q34.5 -49.5 34.5 -128.5q0 -77 -37 -128t-96 -51q-61 0 -98.5 50t-37.5 129q0 76 36 127t100 51t98.5 -49.5zM952.5 357.5q34.5 -49.5 34.5 -128.5q0 -77 -37 -128t-96 -51q-61 0 -98.5 50t-37.5 129q0 76 36 127t100 51t98.5 -49.5zM606 107q15 42 15 123
t-13.5 122t-56.5 41t-57.5 -41.5t-14.5 -121.5t16 -122.5t56 -42.5t55 42zM909 107q15 42 15 123t-13.5 122t-56.5 41t-57.5 -41.5t-14.5 -121.5t16 -122.5t56 -42.5t55 42z" />
    <glyph glyph-name="guilsinglleft" unicode="&#x2039;" horiz-adv-x="263" 
d="M218 482l2 5q0 8 -10 8h-1q-6 0 -13 -3.5t-11 -8.5l-181 -231q-4 -5 -4 -13q0 -7 4 -11l189 -222q10 -12 25 -12h1q6 0 8 4t-1 9l-136 220q-3 6 -3 13q0 9 3 13z" />
    <glyph glyph-name="guilsinglright" unicode="&#x203a;" horiz-adv-x="263" 
d="M141 240q0 -7 -3 -13l-136 -220q-2 -4 -2 -6q0 -7 9 -7h1q15 0 25 12l189 222q4 4 4 11q0 8 -4 13l-181 231q-4 5 -11 8.5t-13 3.5h-1q-6 0 -8.5 -4t0.5 -9l128 -229q3 -4 3 -13z" />
    <glyph glyph-name="fraction" unicode="&#x2044;" horiz-adv-x="565" 
d="M506 1000l-486 -1000h58l487 1000h-59z" />
    <glyph glyph-name="Euro" unicode="&#x20ac;" horiz-adv-x="717" 
d="M607 787q-9 0 -14 8t0 14q7 9 12 39.5t6 41.5q-4 41 -32 59t-61.5 22t-33.5 1q-21 0 -66.5 -22t-95 -105.5t-61.5 -248.5h319l-28 -56h-294v-29q-1 -18 -0.5 -31.5t0.5 -21.5h274l-28 -56h-244q11 -196 72 -284.5t149 -88.5q84 0 123 49q30 38 30 74q0 17 -6.5 28.5
t-13.5 11.5q-3 0 -9 -2q-4 -3 -11 -3q-15 0 -28.5 14.5t-11.5 28.5q3 21 16.5 31.5t30.5 10.5q16 0 27 -8q21 -13 33.5 -37.5t12.5 -57.5q0 -18 -2 -28q-3 -24 -24.5 -57t-68 -59t-119.5 -26q-108 0 -207.5 82t-121.5 321h-118q-13 0 -13 10l2 8l14 27q4 11 17 11h95
q-1 18 -1 54v28h-113q-13 0 -13 10l2 8l14 27q4 11 17 11h96q14 174 83 263.5t142.5 114.5t131.5 25q44 0 71 -8.5t44.5 -18t24.5 -12.5q32 -22 55 -51l-7 -10q-8 -14 -21 -45q-20 -44 -25 -52q-10 -15 -22 -15z" />
    <glyph glyph-name="trademark" unicode="&#x2122;" horiz-adv-x="630" 
d="M586 765q0 -5 -2 -5h-72q-2 0 -2 5t2 5q18 0 18 18v168l-72 -154l-74 156v-170q0 -6 4 -12t14 -6q2 0 2 -5t-2 -5h-70q-1 0 -1 5t1 5q11 0 15 6t4 12v188q0 4 -3.5 10t-15.5 6q-6 0 -9 3t-3 7q0 3 3 6t9 3h66l66 -153l67 153h53q11 0 11 -8q0 -4 -3 -7.5t-8 -3.5
q-19 0 -19 -19v-185q0 -6 4 -12t15 -6q2 0 2 -5zM310 1004q0 -12 -5.5 -15.5t-7.5 -6.5q-9 -11 -11.5 -19t-0.5 -18q0 -3 3 -7t3 -8q0 -6 -4.5 -11t-10.5 -5t-9.5 5t-3.5 15l1 12l2 12t0.5 10t-1.5 7q-6 12 -25 12h-10q-16 -2 -16 -18v-183q0 -6 4.5 -11t13.5 -5q2 0 2 -5
t-2 -5h-75q-2 0 -2 5t2 5q10 0 14 6t4 12v181v4q0 12 -13 14h-28q-14 0 -20 -3.5t-6 -10.5q0 -5 5 -18t5 -21q0 -20 -13 -20q-6 0 -11.5 4.5t-5.5 11.5q0 4 1.5 7.5t2.5 8.5q2 10 -0.5 23t-8.5 18q-5 2 -9 6.5t-4 8.5q0 8 11 8h218q10 0 11 -6z" />
    <glyph glyph-name="partialdiff" unicode="&#x2202;" horiz-adv-x="531" 
d="M82 597q0 43 26 85t71 69t99 27q60 0 109.5 -30.5t78.5 -88t29 -135.5q0 -21 -1 -32q-11 -143 -54 -255t-110.5 -174.5t-151.5 -62.5q-43 0 -84 20t-67.5 61.5t-26.5 100.5q0 58 22.5 114.5t59.5 97.5q38 42 89 67t107 25q39 0 73 -15t57 -39q2 -2 8 -8.5t14 -23.5
q12 62 12 114q0 100 -39.5 163t-102.5 71q-8 1 -23 1q-46 0 -80.5 -23.5t-52 -56.5t-17.5 -60q0 -18 9 -27q6 -5 10.5 -6t5.5 -1q6 2 10 2q8 0 15 -5t10 -14q3 -21 -10 -35t-33 -14q-21 0 -38 17.5t-23 51.5q-1 6 -1 19zM367 426.5q-32 17.5 -71 17.5q-55 0 -108.5 -33.5
t-81.5 -92.5q-32 -64 -32 -141q0 -63 25 -104.5t71 -41.5q54 0 106.5 51.5t91 131.5t50.5 160q-19 35 -51 52.5z" />
    <glyph glyph-name="emptyset" unicode="&#x2205;" horiz-adv-x="646" 
d="M557.5 664.5q53.5 -77.5 53.5 -172.5q0 -83 -41 -153.5t-111 -111.5t-153 -41q-35 0 -70 8l-14 -45h-50l18 59q-85 35 -137.5 112t-52.5 172q0 83 41 153t111.5 111.5t153.5 41.5q33 0 67 -8l16 52h50l-20 -66q85 -34 138.5 -111.5zM103.5 357.5q40.5 -60.5 105.5 -88.5
l145 461q-25 5 -48 5q-66 0 -122 -33t-88.5 -88.5t-32.5 -121.5q0 -74 40.5 -134.5zM427.5 281.5q55.5 32.5 88 88.5t32.5 122q0 74 -41 135t-107 89l-145 -462q27 -5 51 -5q66 0 121.5 32.5z" />
    <glyph glyph-name="product" unicode="&#x220f;" horiz-adv-x="723" 
d="M686 -81.5q2 -2.5 2 -4.5t-2 -4t-6 -2h-240q-4 0 -6 2t-2 4t2.5 4.5t5.5 2.5q66 1 75 60v1019h-345v-1012q2 -26 19 -46t57 -21q4 0 6 -2.5t2 -4.5t-2 -4t-6 -2h-238q-4 0 -6 2t-2 4t2.5 4.5t5.5 2.5q45 1 60.5 25t15.5 51v962q-4 25 -21 43t-54 19q-3 0 -5.5 2.5
t-2.5 4.5t2 4t6 2h75h1h519h2h74q4 0 6 -2t2 -4t-2 -4.5t-6 -2.5q-39 -1 -56 -20.5t-20 -44.5v-6v-958v-7q3 -25 20 -44t56 -20q4 0 6 -2.5z" />
    <glyph glyph-name="summation" unicode="&#x2211;" horiz-adv-x="872" 
d="M837 -41q0 13 -10 15h-1q-6 0 -9.5 -4.5t-7.5 -14.5q-12 -50 -31 -71q-22 -28 -64 -43t-88 -15h-455q-19 0 -19 13q0 6 6 14l351 510q5 6 5 15q0 10 -5 17l-320 527q-5 8 -5 15q0 13 18 13h417q64 0 100.5 -31.5t49.5 -102.5q3 -22 16 -22q11 0 9 24l-12 160
q-2 22 -23 22h-736q-23 0 -23 -11q0 -8 9 -24l388 -622q5 -6 5 -16t-5 -16l-388 -559q-9 -14 -9 -24q0 -5 6 -8t17 -3h756q22 0 25 21l32 212q1 3 1 9z" />
    <glyph glyph-name="minus" unicode="&#x2212;" horiz-adv-x="674" 
d="M0 469v-61h639v61h-639z" />
    <glyph glyph-name="radical" unicode="&#x221a;" horiz-adv-x="697" 
d="M299 152q-5 0 -10 9l-184 363q-5 11 -12 11q-4 0 -8 -4l-76 -68q-7 -6 -8.5 -10t2.5 -10l2 -4q5 -10 12 -10q4 0 8 3l37 31q3 3 7 3q8 0 13 -10l218 -443q4 -13 10 -13t9 10l341 971q1 2 1 6q0 11 -12 11h-5q-13 0 -18 -12l-317 -824q-4 -10 -10 -10z" />
    <glyph glyph-name="infinity" unicode="&#x221e;" horiz-adv-x="1145" 
d="M404.5 661.5q-66.5 47.5 -137.5 47.5q-68 0 -127 -34t-94.5 -101.5t-35.5 -162.5q0 -89 35.5 -155t96.5 -101.5t136 -35.5q60 0 106.5 19t97.5 67t122 140q80 -128 148 -173q61 -43 120 -43t114 35.5t89 100t34 146.5q0 84 -36.5 150t-97 102.5t-128.5 36.5
q-47 0 -88 -15.5t-91 -59t-116 -124.5q-81 113 -147.5 160.5zM402 323q-50 -54 -89 -79q-45 -30 -100 -30q-45 0 -81.5 23t-58 65t-21.5 97t27.5 99.5t77 69.5t114.5 25q74 0 135.5 -31.5t115.5 -95.5q-70 -89 -120 -143zM820 565q40 20 79 20q41 0 79.5 -22.5t62.5 -63
t24 -91.5q0 -77 -52 -123t-133 -46q-45 0 -78.5 10t-73 40.5t-94.5 90.5l109 128q37 37 77 57z" />
    <glyph glyph-name="integral" unicode="&#x222b;" horiz-adv-x="508" 
d="M473 733q0 -18 -6 -35q-5 -12 -15 -18.5t-20 -6.5q-12 0 -21 8t-9 21t4 19.5t11 11.5t11 9q5 3 5 18q0 24 -18 43t-59 16q-27 0 -57.5 -25.5t-30.5 -112.5v-19v-462v-18v-5q0 -96 -42 -136.5t-110 -40.5q-34 0 -61.5 14.5t-43.5 44.5q-11 20 -11 48q0 18 6 34
q6 13 15.5 19t20.5 6q13 0 21.5 -7.5t8.5 -20.5t-4.5 -19.5t-11.5 -11.5t-11 -9t-4 -17q0 -24 18 -43.5t59 -16.5q24 0 50.5 25.5t26.5 111.5v19v152v328v5q0 95 46.5 136t115.5 41q34 0 61.5 -14.5t43.5 -44.5q11 -19 11 -47z" />
    <glyph glyph-name="approxequal" unicode="&#x2248;" horiz-adv-x="564" 
d="M516 584q-7 0 -10 -14q-9 -36 -33 -55.5t-57 -19.5q-21 0 -34 4q-25 7 -78 29q-102 43 -145 55q-23 6 -44 6q-30 0 -56 -16q-52 -31 -59 -107v-3q0 -11 10 -15q2 -1 5 -1q7 0 10 12q21 74 88 74q35 0 111 -32q109 -44 137 -52q27 -8 49 -8q48 0 81.5 33.5t37.5 90.5v3
q0 11 -9 15q-1 1 -4 1zM516 372q-7 0 -10 -14q-9 -36 -33 -55.5t-57 -19.5q-21 0 -34 4q-25 7 -78 29q-102 43 -145 55q-23 6 -44 6q-30 0 -56 -16q-52 -31 -59 -107v-3q0 -11 10 -15q2 -1 5 -1q7 0 10 12q21 74 88 74q35 0 111 -32q109 -44 137 -52q27 -8 49 -8
q48 0 81.5 33.5t37.5 90.5v3q0 11 -9 15q-1 1 -4 1z" />
    <glyph glyph-name="notequal" unicode="&#x2260;" horiz-adv-x="643" 
d="M306 428h302v-61h-328l-185 -424h-58l184 424h-221v61h248l57 132h-305v61h331l192 441h59l-192 -441h218v-61h-244z" />
    <glyph glyph-name="lessequal" unicode="&#x2264;" horiz-adv-x="604" 
d="M0 424l563 -245v46l-485 210l485 213v48l-563 -247v-25zM3 0h562v34h-562v-34z" />
    <glyph glyph-name="greaterequal" unicode="&#x2265;" horiz-adv-x="602" 
d="M2 696v-48l485 -213l-485 -210v-46l563 245v25zM0 34v-34h562v34h-562z" />
    <glyph glyph-name="lozenge" unicode="&#x25ca;" horiz-adv-x="833" 
d="M0 497l348 -497h103l347 497l-347 503h-103zM399 41l-319 456l319 458l317 -458z" />
    </font>
</defs>
</svg>
