<?xml version="1.0" standalone="no"?>
<!DOCTYPE svg PUBLIC "-//W3C//DTD SVG 1.1//EN" "http://www.w3.org/Graphics/SVG/1.1/DTD/svg11.dtd" >
<svg>
<metadata>
Created by FontForge 20090622 at Tue Apr 28 21:16:32 2020
 By deploy user
Copyright &#194;&#169; 2016 by Andrew Herndon. All rights reserved.
</metadata>
<defs>
<font id="Zefani_Demo-Regular" horiz-adv-x="0" >
  <font-face 
    font-family="Zefani_Demo"
    font-weight="800"
    font-stretch="normal"
    units-per-em="1000"
    panose-1="0 0 9 0 0 0 0 0 0 0"
    ascent="832"
    descent="-168"
    cap-height="750"
    bbox="-472 -232 1006 877"
    underline-thickness="50"
    underline-position="-50"
    unicode-range="U+0020-U+2265"
  />
<missing-glyph horiz-adv-x="500" 
d="M410 832v-1000h-317v1000h317zM333 150h-166v-113h166v113zM300 117v-47h-100v47h100zM333 323h-100v-56h34v23h33v-47h-100v80h-33v-113h166v113zM333 445h-33v-66h-133v-34h166v100zM333 505h-166v-33h66v-37h-66v-33h100v70h66v33zM233 602v-36h-33v36h33zM267 636
h-100v-104h166v34h-66v70zM333 765h-165v-33h65v-37h-66v-33h166v33h-66v37h66v33zM333 14h-166v-33h70l-70 -47v-33h166v33h-102l70 47h32v33z" />
    <glyph glyph-name=".notdef" horiz-adv-x="500" 
d="M410 832v-1000h-317v1000h317zM333 150h-166v-113h166v113zM300 117v-47h-100v47h100zM333 323h-100v-56h34v23h33v-47h-100v80h-33v-113h166v113zM333 445h-33v-66h-133v-34h166v100zM333 505h-166v-33h66v-37h-66v-33h100v70h66v33zM233 602v-36h-33v36h33zM267 636
h-100v-104h166v34h-66v70zM333 765h-165v-33h65v-37h-66v-33h166v33h-66v37h66v33zM333 14h-166v-33h70l-70 -47v-33h166v33h-102l70 47h32v33z" />
    <glyph glyph-name=".null" 
 />
    <glyph glyph-name="nonmarkingreturn" horiz-adv-x="333" 
 />
    <glyph glyph-name="space" unicode=" " horiz-adv-x="250" 
 />
    <glyph glyph-name="exclam" unicode="!" horiz-adv-x="247" 
d="M216 664q3 -23 -2 -72q-3 -36 -42.5 -164t-47.5 -182q-7 56 -47.5 184t-43.5 161l-1 73q5 36 30.5 61t60.5 25h1q35 0 61 -25t31 -61zM208 84q0 35 -24.5 60t-59.5 25t-59.5 -25t-24.5 -60t24.5 -59.5t59.5 -24.5q34 0 59 25t25 59z" />
    <glyph glyph-name="numbersign" unicode="#" horiz-adv-x="634" 
d="M604 482h-133l-50 -200h141v-10h-143l-68 -272h-10l67 272h-219l-68 -272h-10l67 272h-148v10h151l50 200h-158v10h160l64 258h11l-65 -258h220l64 258h11l-65 -258h131v-10zM411 282l50 200h-220l-50 -200h220z" />
    <glyph glyph-name="dollar" unicode="$" horiz-adv-x="637" 
d="M463 509q-40 4 -65.5 36t-20.5 72q5 41 36 65.5t71 20.5l10 -1q-18 26 -80 57q69 -14 116 -59.5t41 -103.5q-4 -40 -36 -66t-72 -21zM173 267q43 -4 70.5 -39t22.5 -79t-39 -70.5t-78 -22.5l-10 1q10 -16 31 -31t36.5 -22.5t19.5 -8.5q-75 15 -126.5 64.5t-44.5 113.5
q5 44 39.5 71.5t78.5 22.5zM371 471q115 -36 170.5 -93.5t55.5 -147.5q0 -92 -50 -153.5t-121 -76.5q36 22 43.5 83t-24.5 119q-18 31 -46.5 50t-80.5 37v-377h-12v382q-6 2 -19.5 6t-21.5 7q-111 35 -162 86.5t-61 123.5q-11 83 31 143t107 90q-7 -8 -13.5 -27.5t-8.5 -51
t12 -64.5q18 -45 48.5 -69.5t87.5 -44.5v340h12v-345z" />
    <glyph glyph-name="percent" unicode="%" horiz-adv-x="831" 
d="M270 0h-10l310 750h11zM178 378q-3 0 -8 2t-14.5 16.5t-13.5 38.5q-5 31 -5 133q0 80 6 122q4 24 13 39t16 18l8 3q-45 0 -92.5 -50t-47.5 -132q0 -84 45.5 -137t92.5 -53zM215 378q3 0 8.5 2t15.5 16.5t14 38.5q5 31 5 133q0 69 -6 122q-3 24 -12.5 39t-17.5 18l-9 3
q44 0 93 -50t49 -132q0 -84 -46 -137t-94 -53zM614 0q-3 0 -8 2t-14.5 16.5t-13.5 38.5q-5 31 -5 133q0 80 6 122q4 24 13 39t16 18l8 3q-45 0 -92.5 -50t-47.5 -132q0 -84 45.5 -137t92.5 -53zM651 0q3 0 8.5 2t15.5 16.5t14 38.5q5 31 5 133q0 70 -6 122q-3 24 -12.5 39
t-17.5 18l-9 3q44 0 93 -50t49 -132q0 -84 -46 -137t-94 -53z" />
    <glyph glyph-name="ampersand" unicode="&#x26;" horiz-adv-x="736" 
d="M581 241q43 -55 48.5 -111t-16 -101t-65.5 -95q4 9 4.5 19t-3 19.5t-7.5 18t-11.5 18l-12.5 15.5t-13.5 15t-11.5 13q-215 246 -299 374q-45 71 -42 141q2 75 53 129q13 14 30.5 24.5t28.5 14.5l10 4q-12 -9 -11 -40.5t16 -63.5q13 -29 40.5 -69t47.5 -66t66 -81l58 -70z
M487 709q30 -27 31.5 -66.5t-24.5 -67.5q-15 -19 -50 -39q6 6 3 26q-8 55 -59 143q-26 43 -44 45q9 0 29 1.5t54.5 -9.5t59.5 -33zM611 536q35 0 60 -24.5t25 -59.5t-25 -60t-60 -25t-59.5 25t-24.5 60q0 34 24.5 59t59.5 25zM381 37q-15 0 -31 4q-45 11 -96 77l-58 78
q-50 75 -58 121q-3 17 -1.5 28t4.5 17l3 5q-77 -52 -98 -137q-20 -74 23 -139q33 -45 79 -67q62 -27 139 -17q48 7 94 30z" />
    <glyph glyph-name="quotesingle" unicode="'" horiz-adv-x="191" 
d="M160 700q3 -13 -1 -47q-3 -22 -29.5 -108.5t-33.5 -136.5q-7 52 -34.5 138.5t-29.5 105.5l-1 48q3 26 21 43t43 17h1q24 0 42.5 -17.5t21.5 -42.5z" />
    <glyph glyph-name="parenleft" unicode="(" horiz-adv-x="290" 
d="M148 184q0 -60 20 -113.5t48 -86.5t56 -57.5t48 -34.5l20 -11l-17 5.5t-42 20.5t-59.5 38.5t-63 62.5t-59.5 89.5t-42 122t-17 158.5v1v1q0 85 16.5 158t43 122.5t58.5 89.5t64 63t58.5 38t43.5 21l16 5l-21 -11t-46 -34t-58 -58.5t-46 -85.5t-21 -114q-4 -103 -4 -195z
" />
    <glyph glyph-name="parenright" unicode=")" horiz-adv-x="291" 
d="M143 183q0 -44 -10.5 -84.5t-27.5 -70t-38 -55t-41.5 -42t-37.5 -28.5t-28 -17l-10 -6l17 5.5t42 20t59.5 38.5t63.5 62.5t60 89t42 122t17 158.5v2v1q0 85 -16.5 158t-43 122.5t-59 89.5t-64.5 63t-58.5 38t-43.5 20l-16 6l21 -11t46 -34t58.5 -59t46.5 -86t21 -114
q4 -102 4 -194z" />
    <glyph glyph-name="asterisk" unicode="*" horiz-adv-x="362" 
d="M244 722q0 17 -10.5 28t-26.5 11q-17 0 -28.5 -11t-11.5 -28q0 -16 20 -56t20 -45q0 5 18.5 45t18.5 56zM244 722q0 17 -10.5 28t-26.5 11q-17 0 -28.5 -11t-11.5 -28q0 -16 20 -56t20 -45q0 5 18.5 45t18.5 56zM244 722q0 17 -10.5 28t-26.5 11q-17 0 -28.5 -11
t-11.5 -28q0 -16 20 -56t20 -45q0 5 18.5 45t18.5 56zM100 604q-15 -8 -19 -23t4 -29t23 -18t30 4q14 9 38.5 45.5t28.5 38.5q-4 -3 -47.5 -6.5t-57.5 -11.5zM167 521q0 -17 11 -28t27 -11q17 0 28 11t11 28t-19.5 56t-19.5 44q0 -5 -19 -44t-19 -56zM138 705
q-15 8 -29.5 4.5t-22.5 -17.5q-9 -15 -5 -30t19 -24q14 -8 57.5 -10.5t48.5 -5.5q-4 3 -29 39t-39 44zM273 538q15 -8 30 -4.5t23 17.5q8 15 4 30t-18 23q-14 9 -58.5 12t-48.5 5q4 -3 29 -39t39 -44zM312 638q32 21 15 52q-9 15 -24 19t-30 -4q-14 -8 -38.5 -44.5
t-28.5 -39.5q5 3 48.5 6t57.5 11zM34 2q0 2 -2 2t-2 -2t2 -2t2 2z" />
    <glyph glyph-name="plus" unicode="+" horiz-adv-x="580" 
d="M540 381v-10h-245v-245h-10v245h-245v10h245v244h10v-244h245z" />
    <glyph glyph-name="comma" unicode="," horiz-adv-x="229" 
d="M138 4q-33 -11 -63.5 5t-40.5 50q-11 33 5 64t49 41q34 10 65 -6t41 -49q17 -61 -21.5 -111.5t-103.5 -77.5q8 5 21 14t35.5 32.5t25.5 42.5z" />
    <glyph glyph-name="hyphen" unicode="-" horiz-adv-x="320" 
d="M30 290v12h260v-12h-260z" />
    <glyph glyph-name="period" unicode="." horiz-adv-x="228" 
d="M198 84q0 35 -24.5 60t-59.5 25t-59.5 -25t-24.5 -60t24.5 -59.5t59.5 -24.5q34 0 59 25t25 59z" />
    <glyph glyph-name="slash" unicode="/" horiz-adv-x="412" 
d="M41 -140h-11l342 890h10z" />
    <glyph glyph-name="zero" unicode="0" horiz-adv-x="725" 
d="M330 0q-4 1 -10 4t-21.5 17.5t-28 36.5t-23 65.5t-12.5 98.5q-3 79 -3 153l3 157q1 54 11.5 96.5t24.5 64t27.5 36t23.5 17.5l9 4q-24 -3 -55 -13.5t-74.5 -38t-78 -66.5t-59 -106.5t-24.5 -150.5q0 -70 17 -128.5t45 -97.5t59.5 -68t66 -45.5t59 -25t43.5 -10.5zM395 0
q4 1 10 4t21.5 17.5t28 36.5t23 65.5t12.5 98.5q3 79 3 153l-3 157q-1 54 -11.5 96.5t-24.5 64t-27.5 36t-22.5 17.5l-10 4q24 -3 55 -13.5t74.5 -38t78 -66.5t59 -106.5t24.5 -150.5q0 -70 -17 -128.5t-45 -97.5t-59.5 -68t-66 -45.5t-59 -25t-43.5 -10.5z" />
    <glyph glyph-name="one" unicode="1" horiz-adv-x="328" 
d="M278 0l-21 15v753q-1 -4 -4 -10.5t-17.5 -24t-35 -33.5t-59.5 -33.5t-87 -27.5l22 -14v-610l-21 -15h223z" />
    <glyph glyph-name="two" unicode="2" horiz-adv-x="590" 
d="M550 216q0 -25 -6.5 -57t-22.5 -70t-53 -63.5t-88 -25.5q-37 0 -74.5 18.5t-63 41t-58 41t-61.5 18.5q-19 0 -39 -9.5t-30.5 -18.5t-10.5 -10q17 24 36 41.5t34.5 29t41.5 17.5t41.5 9t51.5 1t55.5 -3.5t68.5 -6.5t76 -8t47 2t30 13.5t16 17.5t7 16zM522 640
q29 -45 24 -98.5t-46 -95.5q-31 -32 -173 -107.5t-209 -124.5l55.5 61.5t95.5 120.5t75 127q11 29 8.5 65.5t-12 69t-35.5 58.5t-64 34q218 0 281 -110zM223 565q0 38 -27 64.5t-65 26.5q-37 0 -64 -27t-27 -64q0 -38 26.5 -65t64.5 -27t65 27t27 65z" />
    <glyph glyph-name="three" unicode="3" horiz-adv-x="608" 
d="M317 416q19 0 43 -2.5t63 -15t69.5 -32t53 -59t22.5 -91.5q0 -57 -24 -99t-67 -66t-93 -36.5t-111 -14.5q80 27 100 120q10 50 9 91q0 53 -10 98q-10 43 -38 69.5t-52 31.5l-23 6q7 2 18.5 7.5t35 30t31.5 57.5q6 22 6 79q0 37 -8 74q-6 33 -26 54.5t-37 26.5l-17 5
q50 -2 92.5 -11t81 -26t60.5 -48.5t22 -73.5q0 -46 -25 -82.5t-60.5 -55.5t-66 -28t-49.5 -9zM224 155q0 38 -27 65t-65 27t-65 -27t-27 -65t27 -65t65 -27t65 27t27 65zM232 565q0 38 -27 64.5t-65 26.5t-65 -27t-27 -64q0 -38 27 -65t65 -27t65 27t27 65z" />
    <glyph glyph-name="four" unicode="4" horiz-adv-x="714" 
d="M514 15l21 -15h-224l21 15v623l80 112h102v-735zM177 425q-6 -41 -1 -73.5t18 -57t26 -40.5t24 -24l10 -9h-214zM567 312q3 1 9 3.5t22 11.5t29 19t27 26.5t20 34.5v-190q-12 30 -38.5 53.5t-47.5 32.5z" />
    <glyph glyph-name="five" unicode="5" horiz-adv-x="594" 
d="M224 155q0 38 -27 65t-65 27t-65 -27t-27 -65t27 -65t65 -27t65 27t27 65zM181 459q78 6 135 2.5t97.5 -23t66.5 -40.5t40.5 -49.5t20 -50.5t5.5 -43q0 -39 -13 -75.5t-43.5 -74.5t-90.5 -66t-144 -39q23 9 54 41.5t42 79.5q15 63 10 127q-2 29 -11.5 59.5t-29 63t-56 57
t-83.5 31.5zM552 752q1 -13 1.5 -37t-12 -53t-30 -54.5t-53.5 -43t-82 -17.5q-48 0 -128 21.5t-112 21.5q-31 0 -50.5 -11t-23.5 -22l-4 -11v102q0 30 49.5 67t121.5 35q37 -2 94 -21t96 -21q38 -3 65.5 1t39.5 11t19.5 14t8.5 12v6z" />
    <glyph glyph-name="six" unicode="6" horiz-adv-x="641" 
d="M557 609q0 38 -27 65t-65 27t-65 -27t-27 -65t27 -64.5t65 -26.5t65 26.5t27 64.5zM424 420q70 0 123.5 -50.5t53.5 -147.5q0 -94 -70.5 -155.5t-163.5 -66.5q2 1 6 2.5t14 9.5t18.5 19.5t15.5 34t9 50.5q3 68 2 104q-2 65 -10 97q-25 96 -103 75q38 28 105 28zM235 222
q3 -117 19.5 -163t43.5 -59q-28 3 -58.5 14t-67.5 38.5t-65.5 66t-47.5 103.5t-19 144q0 82 23 149.5t56.5 109t74.5 70.5t74.5 41t59.5 14q-4 -1 -10 -3.5t-21 -17t-27.5 -36t-23 -64.5t-11.5 -98q-3 -83 -3 -156z" />
    <glyph glyph-name="seven" unicode="7" horiz-adv-x="576" 
d="M413 460l62 53l-14 -19t-13 -18l-28 -41q-54 -75 -82 -154q-26 -75 -26 -147q0 -67 23 -134h-241q-1 11 -1 30q0 104 44 177q48 76 161 164zM534 752q1 -13 1.5 -37t-12 -53t-30 -54.5t-53.5 -43t-82 -17.5q-48 0 -128 21.5t-112 21.5q-31 0 -50.5 -12t-23.5 -24l-4 -11
v105q0 30 49.5 67.5t121.5 34.5q37 -2 94 -21t96 -21q38 -2 65.5 1.5t39.5 10.5t19.5 14t8.5 12v6z" />
    <glyph glyph-name="eight" unicode="8" horiz-adv-x="662" 
d="M231 331q7 26 22 42.5t25 20.5t26 8q-34 17 -50 74q-9 35 -9 108q0 63 9 97q7 31 24 48.5t32 20.5q-95 -2 -162 -47.5t-67 -118.5q0 -43 18.5 -78t44.5 -53t52.5 -30.5t45.5 -16.5l18 -3q-9 -1 -24 -3.5t-52.5 -15.5t-66.5 -32.5t-53 -58t-24 -88.5q0 -92 66.5 -146
t177.5 -59q-39 17 -54 99q-9 47 -9 112q0 88 10 120zM431 331q-7 26 -22 42.5t-25 20.5t-26 8q34 17 50 74q9 35 9 108q0 63 -9 97q-7 31 -24 48.5t-32 20.5q95 -2 162 -47.5t67 -118.5q0 -43 -18.5 -78t-44.5 -53t-52.5 -30.5t-45.5 -16.5l-18 -3q9 -1 24 -3.5t52.5 -15.5
t66.5 -32.5t53 -58t24 -88.5q0 -92 -66.5 -146t-177.5 -59q39 17 54 99q9 47 9 112q0 88 -10 120z" />
    <glyph glyph-name="nine" unicode="9" horiz-adv-x="641" 
d="M84 141q0 -38 27 -65t65 -27t65 27t27 65t-27 64.5t-65 26.5t-65 -26.5t-27 -64.5zM217 330q-70 0 -123.5 50.5t-53.5 147.5q0 94 70.5 155.5t163.5 66.5q-2 -1 -6 -2.5t-14 -9.5t-18.5 -19.5t-15.5 -34t-9 -50.5q-3 -68 -2 -104q2 -65 10 -97q25 -96 103 -75
q-38 -28 -105 -28zM406 528q-3 117 -19.5 163t-43.5 59q28 -3 59 -14.5t67 -39t65 -66.5t48 -103.5t19 -142.5q0 -82 -23 -149.5t-56.5 -109t-74.5 -70.5t-74.5 -41t-59.5 -14q4 1 10 3.5t21 17t27.5 36t23 64.5t11.5 98q3 83 3 156z" />
    <glyph glyph-name="colon" unicode=":" horiz-adv-x="229" 
d="M199 431q0 35 -24.5 59.5t-59.5 24.5t-60 -24.5t-25 -59.5t25 -60t60 -25t59.5 25t24.5 60zM199 84q0 35 -24.5 60t-59.5 25t-60 -25t-25 -60t25 -59.5t60 -24.5t59.5 25t24.5 59z" />
    <glyph glyph-name="semicolon" unicode=";" horiz-adv-x="229" 
d="M198 430q0 35 -24.5 59.5t-59.5 24.5t-59.5 -24.5t-24.5 -59.5q0 -34 25 -59t59 -25q35 0 59.5 24.5t24.5 59.5zM138 4q-33 -11 -63.5 5t-40.5 50q-11 33 5 64t49 41q34 10 65 -6t41 -49q17 -61 -23 -115.5t-104 -81.5q9 6 23 17t38 37t27 45q-11 -5 -17 -7z" />
    <glyph glyph-name="less" unicode="&#x3c;" horiz-adv-x="341" 
d="M295 175l6 8l-245 188l245 186l-6 8l-255 -194z" />
    <glyph glyph-name="equal" unicode="=" horiz-adv-x="563" 
d="M523 473v10h-483v-10h483zM523 265v10h-483v-10h483z" />
    <glyph glyph-name="greater" unicode="&#x3e;" horiz-adv-x="341" 
d="M46 175l-6 8l244 188l-244 186l6 8l255 -194z" />
    <glyph glyph-name="question" unicode="?" horiz-adv-x="547" 
d="M517 567q0 -49 -34 -90.5t-80 -70t-114 -79.5t-117 -105l5 8l14 24t20 35.5l23.5 45l25 51t23.5 55.5t20 56t14 54t5 49q0 61 -31 105q-24 36 -63 45q62 2 113 -10q53 -12 91 -35q37 -21 62 -57q23 -37 23 -81zM213 580q0 38 -26.5 65t-64.5 27t-65 -27t-27 -65t27 -64.5
t65 -26.5t64.5 26.5t26.5 64.5zM319 84q0 35 -24.5 60t-59.5 25t-60 -25t-25 -60t25 -59.5t60 -24.5t59.5 25t24.5 59z" />
    <glyph glyph-name="at" unicode="@" horiz-adv-x="980" 
d="M381 361q-15 -60 -24 -114q-14 -86 28 -102q-35 -9 -69 -0.5t-61 34.5t-36.5 71.5t5.5 109.5q19 78 70.5 134t105 76t91.5 6q-16 -4 -40 -31t-38 -71q-14 -41 -32 -113zM939 455q6 -87 -25 -166q-51 -124 -163 -152l-61 -10q-160 -18 -191 69q-13 36 -2 89l74 300h158
l-19 -12l-80 -327q-6 -29 -2.5 -48t13.5 -30.5t23.5 -17t28.5 -7t27.5 -0.5t20.5 3l8 1q52 13 92 50.5t63 94.5q31 77 25 163q-8 89 -50 157q-58 91 -158 145q-100 53 -217 53q-93 0 -177 -36q-82 -35 -144 -97t-97 -144q-36 -84 -36 -177t36 -177q35 -82 97 -144t144 -97
q84 -36 177 -36q81 0 159 29q74 27 134 78l6 -7q-61 -52 -137 -81q-79 -29 -162 -29q-95 0 -181 37q-83 35 -147 99t-100 147q-36 87 -36 181t36 181q36 83 100 147t147 100q87 36 181 36q117 0 222 -54q102 -56 161 -148q44 -69 52 -163z" />
    <glyph glyph-name="A" unicode="A" horiz-adv-x="766" 
d="M496 0h220l-19 15l-270 735h-91l-46 -148l108 -282l-168 1q36 -5 79.5 -21.5t85 -48t55.5 -68.5l63 -168zM237 0q-3 1 -7.5 4.5t-15.5 18.5t-19.5 35t-14.5 58t-4 85q-6 -19 -16.5 -48t-43.5 -84t-66 -69h187z" />
    <glyph glyph-name="B" unicode="B" horiz-adv-x="702" 
d="M50 750h202v-750h-198l17 15v720zM660 201q0 64 -41.5 111.5t-100.5 69t-123 21.5q93 8 151 54t58 115q0 72 -73 125t-183 53q11 -2 21.5 -7t23.5 -17t22 -35t11 -55q3 -30 3 -64l-3 -63q-6 -94 -81 -108q14 -3 28.5 -10t34 -21t33 -40t15.5 -60q3 -30 3 -69l-3 -71
q-5 -64 -36 -94.5t-65 -35.5q48 0 95 8.5t97.5 28.5t81.5 62.5t31 101.5z" />
    <glyph glyph-name="C" unicode="C" horiz-adv-x="705" 
d="M451 0q55 33 119.5 132t84.5 171l-2 -303q-18 25 -46.5 31t-52.5 -0.5t-56.5 -17.5t-46.5 -13zM653 750l2 -289q-20 71 -90.5 163.5t-135.5 125.5q8 -1 64.5 -18t96.5 -15t63 33zM368 0q-18 8 -31 17.5t-32.5 32t-31.5 65t-14 101.5q-4 79 -4 153l4 157q5 183 87 224
q-29 -3 -63 -14.5t-78.5 -40t-80 -68.5t-60 -107.5t-24.5 -150.5q0 -81 26.5 -147t64.5 -104.5t86 -66t84.5 -38t66.5 -13.5z" />
    <glyph glyph-name="D" unicode="D" horiz-adv-x="744" 
d="M50 750h202v-750h-202l21 15v720zM694 369q0 72 -22.5 134t-58.5 104.5t-82 74.5t-91 48t-88 20q117 -45 123 -221q5 -87 5 -160l-5 -156q-7 -175 -122 -213q55 3 111.5 26t109.5 65t86.5 114.5t33.5 163.5z" />
    <glyph glyph-name="E" unicode="E" horiz-adv-x="655" 
d="M252 750v-750h-202l20 15v720l-20 15h202zM332 0q33 10 55 17.5t60 28t64.5 44.5t53 65t40.5 91v-246h-273zM439 223q-1 10 -13 37t-47.5 65.5t-82.5 51.5q47 14 82.5 51t47.5 66l13 30v-301zM557 750h-226q52 -13 96 -49t70 -77.5t41 -75.5t19 -55v257z" />
    <glyph glyph-name="F" unicode="F" horiz-adv-x="607" 
d="M50 0l21 15v720l-21 15h202v-735l21 -15h-223zM557 750h-226q52 -13 96 -49t70 -77.5t41 -75.5t19 -55v257zM439 222q-1 10 -13 37t-47.5 65.5t-82.5 51.5q47 14 82.5 51t47.5 67l13 29v-301z" />
    <glyph glyph-name="G" unicode="G" horiz-adv-x="762" 
d="M505 362h207v-343q-3 8 -10 19.5t-29.5 30.5t-47.5 19q-28 0 -58.5 -17t-61 -41.5t-41.5 -30.5q63 60 63 149v199zM368 0q-18 8 -31 17.5t-32.5 32t-31.5 65t-14 101.5q-4 79 -4 153l4 157q5 183 87 224q-29 -3 -63 -14.5t-78.5 -40t-80 -68.5t-60 -107.5t-24.5 -150.5
q0 -81 26.5 -147t64.5 -104.5t86 -66t84.5 -38t66.5 -13.5zM651 750l2 -296q-20 72 -90.5 168t-135.5 128q8 -1 64.5 -18t96.5 -15t63 33z" />
    <glyph glyph-name="H" unicode="H" horiz-adv-x="746" 
d="M272 0l-21 15v721l20 14h-221l20 -15v-720l-20 -15h222zM474 0l21 15v247q0 30 -16.5 54.5t-40.5 38t-48 22.5t-40 12l-17 3h162v343l-21 15h221l-19 -14v-721l20 -15h-222z" />
    <glyph glyph-name="I" unicode="I" horiz-adv-x="322" 
d="M272 0l-21 15v720l21 15h-222l21 -15v-720l-21 -15h222z" />
    <glyph glyph-name="J" unicode="J" horiz-adv-x="355" 
d="M90 750h215l-18 -11v-608q0 -75 -24 -130.5t-65 -85.5t-91 -42.5t-107 -7.5q41 8 74 62.5t33 169.5v642z" />
    <glyph glyph-name="K" unicode="K" horiz-adv-x="795" 
d="M745 0h-250l16 15l-205 359l133 132l284 -491zM731 750h-276q3 -2 8.5 -6t16.5 -19t16.5 -34t1.5 -52t-21 -71l13.5 17t36.5 39.5t56.5 51.5t69 45t78.5 29zM251 735v-720l21 -15h-222l20 15v720l-16 15h217z" />
    <glyph glyph-name="L" unicode="L" horiz-adv-x="624" 
d="M50 0h201v736l20 14h-221l21 -15v-720zM332 0q18 3 43 15t56 35t58.5 53t51 72.5t33.5 88.5v-264h-242z" />
    <glyph glyph-name="M" unicode="M" horiz-adv-x="888" 
d="M818 15l20 -15h-222l21 15v614l52 121h148l-19 -14v-721zM476 261l60 89l-85 -350h-68l-304 735l-27 15h226zM234 0q-3 1 -8 4t-18 19t-24.5 38.5t-23.5 67t-18 101.5q-10 -57 -23 -101.5t-25 -67.5t-22 -38t-16 -19l-6 -4h184z" />
    <glyph glyph-name="N" unicode="N" horiz-adv-x="805" 
d="M280 0q-40 27 -65.5 95.5t-31.5 122.5l-6 55l-2.5 -23.5t-9.5 -54.5t-19 -73.5t-31.5 -69t-46.5 -52.5h212zM609 249l40 107l-10 -356h-84l-481 735l-24 15h229zM560 750h195q-3 -1 -8 -4.5t-18.5 -18.5t-25 -36.5t-23.5 -62.5t-18 -92q-7 52 -20 93t-26.5 62.5t-26.5 36
t-21 18.5z" />
    <glyph glyph-name="O" unicode="O" horiz-adv-x="789" 
d="M350 0q-15 9 -21 13t-21.5 21t-23 37.5t-15 60t-9.5 90.5q-4 79 -4 153l4 157q2 61 12 105t27 66.5t27.5 31t24.5 15.5q-25 -3 -59 -14.5t-79.5 -40t-83 -68.5t-63.5 -106t-26 -146q0 -77 26 -142t63.5 -105.5t82.5 -70t79.5 -42.5t58.5 -15zM439 0q15 9 21 13t21.5 21
t23 37.5t15 60t9.5 90.5q4 79 4 153l-4 157q-2 61 -12 105t-27 66.5t-27.5 31t-24.5 15.5q25 -3 59 -14.5t79.5 -40t83 -68.5t63.5 -106t26 -146q0 -77 -26 -142t-63.5 -105.5t-82.5 -70t-79.5 -42.5t-58.5 -15z" />
    <glyph glyph-name="P" unicode="P" horiz-adv-x="659" 
d="M50 0l21 15v720l-21 15h202v-735l19 -15h-221zM609 519q0 97 -78.5 164t-198.5 67q88 -21 92 -134q3 -53 3 -97l-3 -93q-2 -40 -10.5 -67.5t-22.5 -41t-24.5 -19.5t-25.5 -10q121 0 194.5 65t73.5 166z" />
    <glyph glyph-name="Q" unicode="Q" horiz-adv-x="789" 
d="M595 0q52 -4 78 -37t21 -79q-3 -27 -20 -49.5t-32 -30.5l-16 -9q31 23 27.5 57.5t-35.5 37.5q-26 2 -65 -15.5t-75 -39.5t-88.5 -38t-101.5 -11q-83 8 -133 69.5t-41 161.5q2 -50 35 -97.5t91 -47.5q38 0 87 21.5t89 46.5t89.5 44t89.5 16zM439 0q15 9 21 13t21.5 21
t23 37.5t15 60t9.5 90.5q4 79 4 153l-4 157q-2 61 -12 105t-27 66.5t-27.5 31t-24.5 15.5q25 -3 59 -14.5t79.5 -40t83 -68.5t63.5 -106t26 -146q0 -77 -26 -142t-63.5 -105.5t-82.5 -70t-79.5 -42.5t-58.5 -15zM350 0q-15 9 -21 13t-21.5 21t-23 37.5t-15 60t-9.5 90.5
q-4 79 -4 153l4 157q2 61 12 105t27 66.5t27.5 31t24.5 15.5q-25 -3 -59 -14.5t-79.5 -40t-83 -68.5t-63.5 -106t-26 -146q0 -77 26 -142t63.5 -105.5t82.5 -70t79.5 -42.5t58.5 -15z" />
    <glyph glyph-name="R" unicode="R" horiz-adv-x="729" 
d="M679 0q-115 -9 -172.5 27.5t-61.5 129.5q-1 23 -1 61q0 59 -33 103.5t-78 59.5q91 13 96 109q3 38 3 75l-3 75q-3 55 -28.5 81t-50.5 29q125 0 193 -57t68 -129q0 -79 -60 -127t-174 -56q117 -8 185.5 -60t68.5 -147q0 -81 3 -111t14 -44q6 -8 14 -12.5t12 -5.5zM71 15
l-21 -15h220l-18 15v735h-202l21 -14v-721z" />
    <glyph glyph-name="S" unicode="S" horiz-adv-x="643" 
d="M549 750l1 -250l-6 15t-22 40t-43 58.5t-72.5 68t-106.5 72.5q9 -3 24 -6.5t54.5 -11t71.5 -10.5t61.5 2.5t37.5 21.5zM344 -4q-62 29 -113.5 71t-80 80.5t-48 73t-26.5 55.5l-6 20l3 -309q12 32 81 33.5t123.5 -9t66.5 -15.5zM410 -4q75 16 129 72t54 146
q0 91 -57 151.5t-173 111.5q-106 47 -131 66q-34 25 -52 69q-18 45 -4 89.5t48 54.5q-80 -7 -132.5 -78t-39.5 -161q10 -72 54 -121.5t151 -93.5q91 -37 130 -61t63 -61q28 -45 14.5 -104t-54.5 -80z" />
    <glyph glyph-name="T" unicode="T" horiz-adv-x="763" 
d="M474 15l19 -15h-221l21 15v735h181v-735zM237 750h-187v-272q3 22 16 58.5t35 82t58.5 83t77.5 48.5zM526 750h187v-272q-3 22 -15.5 58.5t-34 82.5t-58.5 83t-79 48z" />
    <glyph glyph-name="U" unicode="U" horiz-adv-x="742" 
d="M251 193q0 -51 11 -85t28 -49t39.5 -19t42 0t39.5 13q-7 -6 -19.5 -15.5t-52.5 -25.5t-82 -16q-87 0 -137 51.5t-50 176.5v511l-20 15h201v-557zM692 0l-21 15v735h-201l21 -15v-638q0 -41 28.5 -69t68.5 -28h104z" />
    <glyph glyph-name="V" unicode="V" horiz-adv-x="800" 
d="M605 536q5 46 0.5 81.5t-15.5 60.5t-22 41t-20 23l-8 8h210q-45 -16 -81 -69.5t-50 -98.5zM50 750h227l-14 -15l197 -518l68 97l-84 -314h-99l-277 735z" />
    <glyph glyph-name="W" unicode="W" horiz-adv-x="1056" 
d="M831 353l-50 -73l-156 456l13 14h-229l18 -15l246 -735h86zM475 328l-51 -73l-157 480l13 15h-230l18 -15l243 -735h81zM795 750h211q-40 -16 -73.5 -74.5t-46.5 -109.5l-14 -51q3 53 -4 96.5t-19 68t-24 41.5t-21 23z" />
    <glyph glyph-name="X" unicode="X" horiz-adv-x="798" 
d="M260 0l-9 7q-36 44 -6 217q-3 -7 -9 -18.5t-25.5 -43t-40.5 -59t-54 -57.5t-66 -46h210zM516 0h212l-429 735l9 15h-243l22 -15zM523 750q4 -1 9.5 -4.5t18 -19t19 -37.5t3.5 -65t-21 -97q4 8 11.5 21t30 47.5t44.5 63t52.5 55.5t57.5 36h-225z" />
    <glyph glyph-name="Y" unicode="Y" horiz-adv-x="776" 
d="M491 0l-20 15v357l-192 363l12 15h-241l20 -15l220 -416v-304l-21 -15h222zM545 536q4 8 11.5 20.5l29 46.5t42.5 61.5t48.5 53t49.5 32.5h-198l8 -5.5t15.5 -20t15 -38t0.5 -62t-22 -88.5z" />
    <glyph glyph-name="Z" unicode="Z" horiz-adv-x="715" 
d="M465 750h200l-414 -750h-201zM354 750h-274v-242q15 68 63.5 121.5t102 81.5t108.5 39zM649 277q-3 -22 -14 -50t-33.5 -61.5t-53 -64t-75.5 -58t-97 -43.5h273v277z" />
    <glyph glyph-name="bracketleft" unicode="[" horiz-adv-x="225" 
d="M40 869v-992h205v10h-98v972h98v10h-205z" />
    <glyph glyph-name="bracketright" unicode="]" horiz-adv-x="224" 
d="M184 869v-992h-204v10h98v972h-98v10h204z" />
    <glyph glyph-name="underscore" unicode="_" horiz-adv-x="568" 
d="M30 0v12h508v-12h-508z" />
    <glyph glyph-name="braceleft" unicode="{" horiz-adv-x="301" 
d="M228 14q0 -38 9.5 -66t23 -40t27.5 -18.5t24 -6.5h9q-11 -4 -29.5 -4t-42 3.5t-47.5 15.5t-45 29.5t-35.5 48.5t-17.5 70q-4 51 10.5 134.5t14.5 111.5q0 35 -22.5 56t-44.5 24l-22 3q4 0 10 1t21 6t27 12.5t21.5 24.5t9.5 39q0 28 -14.5 112t-10.5 135q3 39 17.5 69.5
t35.5 48t45 29.5t47.5 15.5t42 3.5t29.5 -4q-4 0 -10 -0.5t-22 -6.5t-28.5 -18t-22.5 -40t-10 -66q0 -41 7 -103t7 -99q0 -36 -16.5 -65t-40 -46t-47.5 -28.5t-40 -15.5l-17 -4q7 -1 17.5 -4t38.5 -15.5t49 -28.5t38.5 -45.5t17.5 -65.5q0 -37 -7 -99t-7 -103z" />
    <glyph glyph-name="braceright" unicode="}" horiz-adv-x="302" 
d="M73 13q0 -38 -9.5 -66t-23.5 -40t-27.5 -18.5t-22.5 -6.5h-10q13 -2 36.5 -4t54 8.5t57 26.5t46.5 51t23 81q4 50 -10.5 134t-14.5 112q0 22 9.5 38.5t22.5 25t26 13t22 5.5l10 1q-4 0 -10 1t-21.5 6t-27.5 12.5t-21.5 24.5t-9.5 39q0 28 14.5 112t10.5 134q-3 46 -23 81
t-46.5 51t-57 26.5t-54 8.5t-36.5 -4q4 0 10 -0.5t22 -6.5t28.5 -18t22.5 -40t10 -66q0 -41 -7 -103t-7 -99q0 -36 16.5 -65t40.5 -46t47.5 -28.5t40.5 -15.5l16 -4q-7 -1 -17.5 -4t-38.5 -15.5t-49 -28.5t-38.5 -45.5t-17.5 -65.5q0 -37 7 -99t7 -103z" />
    <glyph glyph-name="asciitilde" unicode="~" horiz-adv-x="441" 
d="M401 310q-1 -2 -3.5 -5t-10.5 -11t-17 -11t-23 -5.5t-29 5.5q-16 6 -54 30t-67 33q-36 9 -64 1.5t-48.5 -26.5t-31.5 -37t-13 -30q1 2 3 5.5t10.5 12t19 13t29 4t40.5 -8.5q23 -9 56 -29t54 -28q31 -11 55.5 -7t42 19.5t29 32t17.5 29.5z" />
    <glyph glyph-name="exclamdown" unicode="&#xa1;" horiz-adv-x="247" 
d="M124 367q35 0 59.5 25t24.5 60q0 34 -25 59t-59 25q-35 0 -59.5 -24.5t-24.5 -59.5t24.5 -60t59.5 -25zM214 -56q3 -22 3.5 -40t-0.5 -25l-1 -7q-5 -36 -31 -61t-61 -25h-1q-35 0 -60.5 25t-30.5 61q-4 24 1 73q3 29 25.5 115.5t43.5 157.5l22 72q85 -281 90 -346z" />
    <glyph glyph-name="guillemotleft" unicode="&#xab;" horiz-adv-x="588" 
d="M552 174l6 8l-245 188l245 186l-6 8l-255 -194zM285 174l6 8l-244 188l244 186l-6 8l-255 -194z" />
    <glyph glyph-name="questiondown" unicode="&#xbf;" horiz-adv-x="547" 
d="M228 452q0 -35 24.5 -60t59.5 -25t60 25t25 60t-25 59.5t-60 24.5q-34 0 -59 -25t-25 -59zM334 -44q0 -38 26.5 -65t64.5 -27t65 27t27 65t-27 64.5t-65 26.5q-37 0 -64 -26.5t-27 -64.5zM30 -31q0 49 37 94t84.5 75.5l112.5 75.5t103 84l-8 -14l-20.5 -39.5l-27.5 -55.5
t-30 -66t-27.5 -68t-20.5 -65t-8 -54q0 -61 31 -105q24 -36 63 -45q-62 -2 -113 10q-53 12 -91 35q-37 21 -62 57q-23 37 -23 81z" />
    <glyph glyph-name="multiply" unicode="&#xd7;" horiz-adv-x="508" 
d="M468 582l-207 -207l207 -207l-7 -7l-207 207l-207 -207l-7 7l207 207l-207 207l7 7l207 -207l207 207z" />
    <glyph glyph-name="divide" unicode="&#xf7;" horiz-adv-x="556" 
d="M516 373v10h-476v-10h476zM278 495q46 0 78.5 32.5t32.5 78.5t-32.5 78.5t-78.5 32.5t-78.5 -32.5t-32.5 -78.5t32.5 -78.5t78.5 -32.5zM278 707q42 0 71.5 -29.5t29.5 -71.5t-29.5 -71.5t-71.5 -29.5q-41 0 -71 29.5t-30 71.5t30 71.5t71 29.5zM278 38q46 0 78.5 32.5
t32.5 78.5t-32.5 79t-78.5 33t-78.5 -33t-32.5 -79t32.5 -78.5t78.5 -32.5zM278 251q42 0 71.5 -30t29.5 -72q0 -41 -29.5 -71t-71.5 -30q-41 0 -71 30t-30 71q0 42 30 72t71 30z" />
    <glyph glyph-name="gravecomb" unicode="&#x300;" 
d="M-46 609l-211 136l6 8l211 -135z" />
    <glyph glyph-name="acutecomb" unicode="&#x301;" 
d="M-252 609l212 137l-5 8l-212 -136z" />
    <glyph glyph-name="uni0302" unicode="&#x302;" 
d="M-429 594l192 144l191 -144l6 8l-197 148l-198 -148z" />
    <glyph glyph-name="tildecomb" unicode="&#x303;" 
d="M-40 714q-1 -2 -3.5 -5t-10.5 -10.5t-17 -11t-23.5 -6t-29.5 5.5q-13 6 -51.5 30t-68.5 33q-62 19 -107 -19.5t-50 -71.5q1 2 3 5.5t10.5 11.5t19 12.5t29 4.5t40.5 -9t55 -28.5t54 -27.5q32 -11 56.5 -7t42 19t29 31.5t16.5 29.5z" />
    <glyph glyph-name="uni0307" unicode="&#x307;" 
d="M-40 666q0 34 -25 59t-59 25q-35 0 -60 -24.5t-25 -59.5t25 -60t60 -25t59.5 25t24.5 60z" />
    <glyph glyph-name="uni0308" unicode="&#x308;" 
d="M-303 666q0 35 -25 59.5t-60 24.5q-34 0 -59 -25t-25 -59q0 -35 24.5 -60t59.5 -25t60 25t25 60zM-40 666q0 34 -25 59t-59 25q-35 0 -60 -24.5t-25 -59.5t25 -60t60 -25t59.5 25t24.5 60z" />
    <glyph glyph-name="uni030A" unicode="&#x30a;" 
d="M-129 571q37 0 63 26.5t26 63.5t-26 63t-63 26t-63.5 -26t-26.5 -63t26.5 -63.5t63.5 -26.5zM-129 740q32 0 55.5 -23.5t23.5 -55.5q0 -33 -23.5 -56.5t-55.5 -23.5q-33 0 -56.5 23.5t-23.5 56.5q0 32 23.5 55.5t56.5 23.5z" />
    <glyph glyph-name="uni0327" unicode="&#x327;" 
d="M-117 0q-15 -24 3 -47q7 -8 30 -24t34 -33q22 -35 -1 -74t-49 -54q3 3 6.5 9t3.5 22.5t-13 32.5q-10 11 -29.5 26t-28.5 26q-13 15 -13 33t9 32t19.5 26t19.5 19z" />
    <glyph glyph-name="endash" unicode="&#x2013;" horiz-adv-x="697" 
d="M30 290v12h637v-12h-637z" />
    <glyph glyph-name="quotedblleft" unicode="&#x201c;" horiz-adv-x="369" 
d="M338 690q3 -13 -1 -47q-3 -22 -29.5 -108.5t-33.5 -136.5q-7 52 -34.5 138.5t-29.5 105.5l-1 48q3 26 21 43t43 17h1q24 0 42.5 -17.5t21.5 -42.5zM160 690q3 -13 -1 -47q-3 -22 -29.5 -108.5t-33.5 -136.5q-7 52 -34.5 138.5t-29.5 105.5l-1 48q3 26 21 43t43 17h1
q24 0 42.5 -17.5t21.5 -42.5z" />
    <glyph glyph-name="quotedblright" unicode="&#x201d;" horiz-adv-x="369" 
d="M338 701q3 -13 -1 -47q-3 -22 -29.5 -108.5t-33.5 -136.5q-7 52 -34.5 138.5t-29.5 105.5l-1 48q3 26 21 43t43 17h1q24 0 42.5 -17.5t21.5 -42.5zM160 701q3 -13 -1 -47q-3 -22 -29.5 -108.5t-33.5 -136.5q-7 52 -34.5 138.5t-29.5 105.5l-1 48q3 26 21 43t43 17h1
q24 0 42.5 -17.5t21.5 -42.5z" />
    <glyph glyph-name="Euro" unicode="&#x20ac;" horiz-adv-x="836" 
d="M545 -7q141 0 251 94l-7 8q-106 -92 -244 -92q-77 0 -146 30t-119 80q-52 51 -80 119q-29 70 -29 145t29 145q28 68 80 119q53 52 119 80q69 30 146 30q138 0 244 -92l7 8q-110 94 -251 94q-76 0 -150 -31q-67 -28 -122 -82q-54 -54 -82 -122q-30 -70 -30 -149t30 -149
q28 -68 82 -122q55 -54 122 -82q74 -31 150 -31zM429 388l17 47h-387l-19 -47h389zM429 272l17 46h-387l-19 -46h389z" />
    <glyph glyph-name="minus" unicode="&#x2212;" horiz-adv-x="428" 
d="M388 371v10h-348v-10h348z" />
    <glyph glyph-name="notequal" unicode="&#x2260;" horiz-adv-x="580" 
d="M231 117l141 568l-9 3l-142 -568zM540 473v10h-500v-10h500zM540 264v10h-500v-10h500z" />
    <glyph glyph-name="lessequal" unicode="&#x2264;" horiz-adv-x="550" 
d="M506 171l4 9l-446 205l446 200l-4 9l-466 -209zM508 104v10h-456v-10h456z" />
    <glyph glyph-name="greaterequal" unicode="&#x2265;" horiz-adv-x="550" 
d="M44 172l466 214l-466 209l-4 -9l446 -201l-446 -204zM498 104v10h-456v-10h456z" />
    </font>
</defs>
</svg>
